<mxfile host="Electron" agent="Mozilla/5.0 (Windows NT 10.0; Win64; x64) AppleWebKit/537.36 (KHTML, like Gecko) draw.io/24.7.8 Chrome/128.0.6613.36 Electron/32.0.1 Safari/537.36" version="24.7.8">
  <diagram name="Page-1" id="4TBorwGSaLeXjhiWjMbV">
    <mxGraphModel dx="1572" dy="825" grid="1" gridSize="10" guides="1" tooltips="1" connect="1" arrows="1" fold="1" page="1" pageScale="1" pageWidth="850" pageHeight="1100" math="0" shadow="0">
      <root>
        <mxCell id="0" />
        <mxCell id="1" parent="0" />
        <mxCell id="3mhKy8wK3tJmvJU5zgWn-10" style="edgeStyle=orthogonalEdgeStyle;shape=connector;curved=1;rounded=0;sketch=1;jiggle=2;curveFitting=1;orthogonalLoop=1;jettySize=auto;html=1;entryX=0;entryY=0.5;entryDx=0;entryDy=0;strokeColor=default;align=center;verticalAlign=middle;fontFamily=Helvetica;fontSize=11;fontColor=default;labelBackgroundColor=default;endArrow=classic;" edge="1" parent="1" source="3mhKy8wK3tJmvJU5zgWn-1" target="3mhKy8wK3tJmvJU5zgWn-8">
          <mxGeometry relative="1" as="geometry" />
        </mxCell>
        <mxCell id="3mhKy8wK3tJmvJU5zgWn-1" value="Download Cortex&lt;div style=&quot;font-size: 14px;&quot;&gt;Agent&lt;/div&gt;" style="rounded=1;whiteSpace=wrap;html=1;sketch=1;curveFitting=1;jiggle=2;fontFamily=Gloria Hallelujah;fontSource=https%3A%2F%2Ffonts.googleapis.com%2Fcss%3Ffamily%3DGloria%2BHallelujah;fontSize=14;arcSize=10;verticalAlign=bottom;" vertex="1" parent="1">
          <mxGeometry x="130" y="270" width="450" height="410" as="geometry" />
        </mxCell>
        <mxCell id="3mhKy8wK3tJmvJU5zgWn-4" style="edgeStyle=orthogonalEdgeStyle;rounded=0;orthogonalLoop=1;jettySize=auto;html=1;exitX=0.5;exitY=0.5;exitDx=0;exitDy=0;exitPerimeter=0;sketch=1;curveFitting=1;jiggle=2;curved=1;" edge="1" parent="1" source="3mhKy8wK3tJmvJU5zgWn-2" target="3mhKy8wK3tJmvJU5zgWn-1">
          <mxGeometry relative="1" as="geometry" />
        </mxCell>
        <mxCell id="3mhKy8wK3tJmvJU5zgWn-2" value="Admins" style="shape=umlActor;verticalLabelPosition=bottom;verticalAlign=top;html=1;outlineConnect=0;sketch=1;curveFitting=1;jiggle=2;fontSize=14;fontFamily=Gloria Hallelujah;fontSource=https%3A%2F%2Ffonts.googleapis.com%2Fcss%3Ffamily%3DGloria%2BHallelujah;" vertex="1" parent="1">
          <mxGeometry x="10" y="370" width="30" height="60" as="geometry" />
        </mxCell>
        <mxCell id="3mhKy8wK3tJmvJU5zgWn-15" style="edgeStyle=orthogonalEdgeStyle;shape=connector;curved=1;rounded=0;sketch=1;jiggle=2;curveFitting=1;orthogonalLoop=1;jettySize=auto;html=1;strokeColor=default;align=center;verticalAlign=middle;fontFamily=Helvetica;fontSize=11;fontColor=default;labelBackgroundColor=default;endArrow=classic;" edge="1" parent="1" source="3mhKy8wK3tJmvJU5zgWn-3" target="3mhKy8wK3tJmvJU5zgWn-5">
          <mxGeometry relative="1" as="geometry" />
        </mxCell>
        <mxCell id="3mhKy8wK3tJmvJU5zgWn-32" style="edgeStyle=orthogonalEdgeStyle;shape=connector;curved=1;rounded=0;orthogonalLoop=1;jettySize=auto;html=1;exitX=0.75;exitY=0;exitDx=0;exitDy=0;entryX=0.25;entryY=1;entryDx=0;entryDy=0;strokeColor=default;align=center;verticalAlign=middle;fontFamily=Gloria Hallelujah;fontSource=https%3A%2F%2Ffonts.googleapis.com%2Fcss%3Ffamily%3DGloria%2BHallelujah;fontSize=11;fontColor=default;labelBackgroundColor=default;endArrow=classic;dashed=1;dashPattern=1 1;" edge="1" parent="1" source="3mhKy8wK3tJmvJU5zgWn-3" target="3mhKy8wK3tJmvJU5zgWn-11">
          <mxGeometry relative="1" as="geometry" />
        </mxCell>
        <mxCell id="3mhKy8wK3tJmvJU5zgWn-3" value="Download Cortex k8s Yaml File" style="rounded=1;whiteSpace=wrap;html=1;sketch=1;curveFitting=1;jiggle=2;fontFamily=Gloria Hallelujah;fontSource=https%3A%2F%2Ffonts.googleapis.com%2Fcss%3Ffamily%3DGloria%2BHallelujah;fontSize=14;" vertex="1" parent="1">
          <mxGeometry x="205" y="310" width="130" height="80" as="geometry" />
        </mxCell>
        <mxCell id="3mhKy8wK3tJmvJU5zgWn-5" value="Extract Dockerconfig file&lt;div&gt;from&amp;nbsp;&lt;span style=&quot;color: rgb(86, 156, 214); background-color: rgb(31, 31, 31); font-family: Consolas, &amp;quot;Courier New&amp;quot;, monospace; white-space: pre;&quot;&gt;.dockerconfigjson&lt;/span&gt;&lt;/div&gt;" style="rounded=1;whiteSpace=wrap;html=1;sketch=1;curveFitting=1;jiggle=2;fontFamily=Gloria Hallelujah;fontSource=https%3A%2F%2Ffonts.googleapis.com%2Fcss%3Ffamily%3DGloria%2BHallelujah;fontSize=14;" vertex="1" parent="1">
          <mxGeometry x="170" y="420" width="200" height="80" as="geometry" />
        </mxCell>
        <mxCell id="3mhKy8wK3tJmvJU5zgWn-17" style="edgeStyle=orthogonalEdgeStyle;shape=connector;curved=1;rounded=0;sketch=1;jiggle=2;curveFitting=1;orthogonalLoop=1;jettySize=auto;html=1;strokeColor=default;align=center;verticalAlign=middle;fontFamily=Helvetica;fontSize=11;fontColor=default;labelBackgroundColor=default;endArrow=classic;" edge="1" parent="1" source="3mhKy8wK3tJmvJU5zgWn-6" target="3mhKy8wK3tJmvJU5zgWn-7">
          <mxGeometry relative="1" as="geometry" />
        </mxCell>
        <mxCell id="3mhKy8wK3tJmvJU5zgWn-6" value="Docker Pull Image&lt;div&gt;to Jumphost&lt;/div&gt;" style="rounded=1;whiteSpace=wrap;html=1;sketch=1;curveFitting=1;jiggle=2;fontFamily=Gloria Hallelujah;fontSource=https%3A%2F%2Ffonts.googleapis.com%2Fcss%3Ffamily%3DGloria%2BHallelujah;fontSize=14;" vertex="1" parent="1">
          <mxGeometry x="405" y="420" width="130" height="80" as="geometry" />
        </mxCell>
        <mxCell id="3mhKy8wK3tJmvJU5zgWn-7" value="Docker save Image to tar" style="rounded=1;whiteSpace=wrap;html=1;sketch=1;curveFitting=1;jiggle=2;fontFamily=Gloria Hallelujah;fontSource=https%3A%2F%2Ffonts.googleapis.com%2Fcss%3Ffamily%3DGloria%2BHallelujah;fontSize=14;" vertex="1" parent="1">
          <mxGeometry x="405" y="310" width="130" height="80" as="geometry" />
        </mxCell>
        <mxCell id="3mhKy8wK3tJmvJU5zgWn-12" style="edgeStyle=orthogonalEdgeStyle;shape=connector;curved=1;rounded=0;sketch=1;jiggle=2;curveFitting=1;orthogonalLoop=1;jettySize=auto;html=1;entryX=0;entryY=0.5;entryDx=0;entryDy=0;strokeColor=default;align=center;verticalAlign=middle;fontFamily=Helvetica;fontSize=11;fontColor=default;labelBackgroundColor=default;endArrow=classic;" edge="1" parent="1" source="3mhKy8wK3tJmvJU5zgWn-8" target="3mhKy8wK3tJmvJU5zgWn-11">
          <mxGeometry relative="1" as="geometry" />
        </mxCell>
        <mxCell id="3mhKy8wK3tJmvJU5zgWn-8" value="Docker Import&lt;div&gt;to Local Registry&lt;/div&gt;" style="rounded=1;whiteSpace=wrap;html=1;sketch=1;curveFitting=1;jiggle=2;fontFamily=Gloria Hallelujah;fontSource=https%3A%2F%2Ffonts.googleapis.com%2Fcss%3Ffamily%3DGloria%2BHallelujah;fontSize=14;" vertex="1" parent="1">
          <mxGeometry x="680" y="330" width="130" height="80" as="geometry" />
        </mxCell>
        <mxCell id="3mhKy8wK3tJmvJU5zgWn-14" style="edgeStyle=orthogonalEdgeStyle;shape=connector;curved=1;rounded=0;sketch=1;jiggle=2;curveFitting=1;orthogonalLoop=1;jettySize=auto;html=1;exitX=1;exitY=0.5;exitDx=0;exitDy=0;strokeColor=default;align=center;verticalAlign=middle;fontFamily=Helvetica;fontSize=11;fontColor=default;labelBackgroundColor=default;endArrow=classic;" edge="1" parent="1" source="3mhKy8wK3tJmvJU5zgWn-11" target="3mhKy8wK3tJmvJU5zgWn-13">
          <mxGeometry relative="1" as="geometry" />
        </mxCell>
        <mxCell id="3mhKy8wK3tJmvJU5zgWn-11" value="Edit Helm Chart / Yaml to point to local registry" style="rounded=1;whiteSpace=wrap;html=1;sketch=1;curveFitting=1;jiggle=2;fontFamily=Gloria Hallelujah;fontSource=https%3A%2F%2Ffonts.googleapis.com%2Fcss%3Ffamily%3DGloria%2BHallelujah;fontSize=14;" vertex="1" parent="1">
          <mxGeometry x="870" y="330" width="130" height="80" as="geometry" />
        </mxCell>
        <mxCell id="3mhKy8wK3tJmvJU5zgWn-13" value="Deploy k8s Helm/Yaml" style="rounded=1;whiteSpace=wrap;html=1;sketch=1;curveFitting=1;jiggle=2;fontFamily=Gloria Hallelujah;fontSource=https%3A%2F%2Ffonts.googleapis.com%2Fcss%3Ffamily%3DGloria%2BHallelujah;fontSize=14;" vertex="1" parent="1">
          <mxGeometry x="1060" y="330" width="130" height="80" as="geometry" />
        </mxCell>
        <mxCell id="3mhKy8wK3tJmvJU5zgWn-18" value="" style="shape=image;verticalLabelPosition=bottom;labelBackgroundColor=default;verticalAlign=top;aspect=fixed;imageAspect=0;image=data:image/png,iVBORw0KGgoAAAANSUhEUgAABAkAAAEZCAYAAAD16Xy9AAAAAXNSR0IArs4c6QAAAARnQU1BAACxjwv8YQUAAAAJcEhZcwAADsMAAA7DAcdvqGQAAHb6SURBVHhe7d0LYBTVoTfw/ya8FBS0vNpaUaRGyZIg1j6uWgFR24ttolxbGppcWum1Ptra3pq02n4x16p3Y3vv7UvbW2wpEaS1aGKh9VpQrFLFBw1hQ4XyxiqCD1RAHkn2O+fMmZkzs7szs2Tzgv9Ph+zMmTlzzpnZ3TmPmY1t3LgxBSIiIiIiIiI65sX27NnDRoI+YOjQofoVRfXWW2/pV0RERERERBQFGwn6ANlA8NJLL+k5iuqOO+7AnXfeqeeIiIiIiIgojKeRgL3VvZNsIBj19Of0HEW1cP8crFq1ig0FREREREREETmNBOyt7p1OOeUUNhIcITYSEBERERER5UY1EtgNBJs2bdKLqbe46KKL2EhwhNhIQERERERElJsC/ZeIiIiIiIiIjnGekQRX/+41vHsghdfebsOBNuBwWwxIpcRaYs2U+Ccm70ywlsViMfTr14HBx8fwkyn7VWSUf/ZIghNOOEHN76pPoP/OVxB77q8Y+MZrKHjrHXFoUigsKEBHRzsKUIiOVIdYViCOVDvaThyKQ2PG4KQ//EFtfyxpbGzkSAIiIiIiIqIceBoJrmrYjdIPvhcp8d/oof0QE5XPlKh2xsS/qpFAhsTkX/lSNhQAW3YewNqte/DfF75hLae88jcSvHXdtfjADV8RRy6G2Ec+LJbEVKNADIXylR4bIv4RLxET/8QKkHrwQbz9k58ADz0kA48ZbCQgIiIiIiLKjed2g9ffaVOV/7+9clDMycaAGH7/9E6xSDUTiFlRMZWNA/K1WmI1HEw47STMXnqcWkpd7IXVahRH7H/nol2O7BDHY++ll8i2ADV6oMM6UujQDQQdYjYm/g694QbsO3u8CiMiIiIiIiLKxNNIcPiwqlECbXKUgNUIYFU5DTLc6qZW7QSbd3egfyFwoK1dBVNmsmK/f/+7eOvtPXjj9dexe9du7Hp1N17duRv/+McrePkf/8D2HVuxZ88evUVm/fbuFeUubydIoaCjEB2qxUYcCNkmoNpsxMEQsyl94ArkcVz6MHDiCejYvcta2EesfKgFT/zqUfz5xw/i8R/8Bsvuuh+P19+Px/5zHpbfcS+Wffd/8aeaH2LpD0X+iIiIiIiIqNM8jQRt7arGqdjjBeS/VoOBrnWqvzH1n3xGgayY7j14WMzZ4WF2Y92K57Ftn57tcd2Tnr3792PAwAEo7Ncf/fv1Q7/CQvTrL6aBBeg3oAAFYh6pArz66m69RWaFb78tyr1AthOIP6LMxTapDlH68nVHuzoe8vYDOauIYyrmcHjLFnTExD56yp9uxLBhN+JPejaKw3teR2zQEHQcNxgFxw0S5TUIqX4ir/2OF/k9HgX9+0MUJPZuWqe3ICIiIiIios7wNBLYDQGygUDd3y6mT310pFgg5mXtU9ZJ1Rqy6cD623a4TUyi4tamF1FGspwOHDyID54xDmeOH4/DYv6gmH9330FMnDgJ554zUVT2O9TtHIHkAwrlX3E85JpiFkMfe0xsJ5bKUQSQDy8Ux6uwAO3tcsSBWGfPmyjct1esr7bsZptxz6XDMGwpMFsviSq2/x3E9u3H5V//DD797Sp0HHxXTAeRevdtXHnnl1H2g6/KdhGR1/56CyIiIiIiIuoMTyOBbBpoE5V9Wf18+JmdaHrmVfx+1av4w/M78YfnXhF/X8bvn3kFDz/9igh7WazzstiqDYfbD4u/vvYG8mg7fAjth0U5iWKS1fzSc0qQam/HeR86V4TKYQFWw0uq0G6AySwmf8HgwLvyBd6edjH2TpuGt6dMw55/vhx7yqZjz+WfspZPmYp9l03DOyL8gDiiB/cdsFt4utlYXPvoHuz5n+l6PrrUgcPoOPSuet6CdMX3rkVh22HMSPy7Okfl4gLxt7+9AhEREREREXWKp3Zl1iGHDD4RJww+AYPFNHDQYDENwaBBJ2DQwEHib38cN6ifeN1f3RuvboDPWAHdh23Pr8CKFda0zhxJv38bntfLnzfG+u9e566/wtlA3xKwbZ0TZm6DfWZc27y3DxhhK1asEzGF8KzvS3PQfkK0icp9R3s71q5Zi/YOUeyxGM79yHnibwEKOoCnVv5FVXtj7cE1efUQyY4YYuLvCWPGYshpp+LEsadh2Hvfi2EjxDT6vRhy0sno956TMGDYyRhw0jARbwdSBQUoTKtM/wk3DrsU99wjbwUYpqZL79msw4TN9+BSvdy+VeBPNw7Djc49A3p7exO5vhvYaR2HDwGH2rDk1rlirl2dreXf/3dAPXYhhsVfrkNBgXwWRnCZERERERERUTSeWqPVh31IVPytoeyq8iUWun3b1k8iqr9ioVxHthHIAe6IydEEJtlA8Bx2jzgPkydPVtP4EToIe7FlG3C2XF48EnvFjF0XHzHeWnfy5GKM3LXNqISLbfaNsMI82+zGuue24Phia7uzxbz7eD4ZthsjztNxFgPbAmv13rgmn3c69rfaDQFB+wkXa+9Ae6oDHakU1rSsFoUny1FOHVj59NNqnVSqXfWQB1EPIpQjNwpi+uDJshex6OMhf91A3bIgn1OgxuKLefG64J238ZZ87kGaZ/Ht9dPVAxP3PDAbz377R/q5AX/CjZMewhWrxXIVBtx1z2ZcMn025i3VDQF/Wop1HwYe+j+rlWDz/z0EFJ2hXudDrKBN5LVNlEsKjTf/AilRhpZ2NF5fJ1YQ+eoQ4R09cRsFERERERHR0ceqZ9pEZaytTd50IOudoqIpK5jir1VtlbciHBB/RQVVVM5iopJrNx60tR3Srwz7XsPuvSMxZsxgvcA0BKefPQYqZMQIjMR+7Lfr7rvt0QKtvkq42GaMbmUwt9kn/g45HXbQ4DFjRJgmw2TjwnN6ZEDrLuwVy7JS64+U0VsGj8GYkXvl4uD9RHC4PSXqu7IC34GJJRNFyXegQFd6P/qx80WFuFCNNLBLO5sOUeoxUeFPqScXygVWHOpoiDgPvv42DorX1mCFQqsCLV7vf/cQxB7Uul4fxp1fvcR6ecl0zMY6bJR1/s0bxatn8e1JeiTBVfPw7PpNwBlF+PC6jZCr/GnpOlxx0xWylUDMb4ZsI7jisrEqqnxoP3QIHfLc6kih7HtfQkzeiiHO0Q5x7pX/5LuwnkQQQ6FsTCAiIiIiIqJO8zQSWCMIRCVV/D81PgRTi0/AFDFdPGGImi49ZyQunThCTMPVdMk57xGVX7Fhm9Ws0GlyOH8rUCx78Sefh9OH6OWdMlLHpyd3OEO3am9rUxXeiaWl1gJRi3/+ry/IdhgUigr/xz7yEfEihraQXvFCecREUctGmo5fzAXu/SXwv3PV69jce3H8g7/BoAd+h0G/EdPvfocBDz6Egv37URCTtxzkeoxm4wE5isCe/ucSYOxluAIP4f82/wlL112Byy6R8+uxafP/iaViPn9tBCjoOCzOxcP41G1fkk0BahTGw9/5b9UgIk5VfOqnt4oiO4xYR3DDChEREREREUXjaSSQVcg2vUjeTvD0P36PZ/7xMJ5+6fdikn8ftuZ3WH/lFrFUGw6LraxfQzAMHo4RQ3aFDO/32b8Pe4cMxvHytRqJoJYGG3w8jt+7Bdv0/Qr7tm1zRyDIMDGXngb9jAP/Yr3+bvveh33bsG2XHlkQtJ8I2kSFt13eBqBKuQAvvPCcujXgueefV7cKFBSk0NEW3EBgSx04oB7mVyDie/mSadgppl2XXiL+XoydF1+Gly+bhlfFslemXiz21IH9BYU4cEj2yMt9RzR2HMZjnrrFwGssLpODB758F9ZdcZmYk/PrsPRH6+UwAjGXPx3tHYi1qZtZ1N0ZS275sZjvwJKaO+WAAlUGqY4UYu0HrQ2IiIiIiIioU6wWAU1VvORfNRfDBwZPwCmD4zhlyAT12ppKcMoJ1nLZC67WbJPjD/wV0MEY86FiHL/lOX37gO8hgJmMGIPTsQXPyfX/tg/HRxpJMALji0diV6u1j7+Jefc2ABF23umAkQb3YYiZWOvv13GtUM8zGC+W6rCs+wl36HAbDh8+jKdXPYtVq55Ge9thHD7YjjZR6V25ciWe+vNTaO/owKH2kKHz8jEDcsSHam+IofBrX0Ps6zei4MavouBr30DBN25E4VduRP9vfAWF//5VcVRkTbpd9cLLRonoLsH/rL4T+PYk56GGw/RDCcfKVoJn3VsL5Py6eevyequBVNh2EB3tB9FY8z9oqv4BOkSZyd/abD/cjt9//VYsuf7b6Og46DRsERERERERUefE9uzZkxo6dCheeuklfOwHr+Djk96L7a8fxsXxIXjmpd+raqV8EJ68FUE1H6gF8mUMHz3lU/j9MzsxZFAb/r5jDxbN6AWVNXnLwnP7MGayXbnvIjnu5403XsMrO1+VzxtEYaxQjSqQjyRQtw+o1x2iwtuB0aNHY+RIt/nhoosuUsfmhBNOUPMHTxmDkT+/G1i+DKl7f4lXp0xFqhDoEBVl9VhC64CJeRG5OEbvXbYc70y9GK+PHYs3Ft2PcS/Ln63sGx6b+wfs2fA3xPr1U/mSIycKCtrU+Sh/1OBQ+2HE2ttR+MEJuPz6cr2Vq7GxEatWrcKdd96plxAREREREVEQTyPB1B+9gklnD1cNAme9fzBiorIp6mNWzzXkAw3tFoIOsbxA3Rf+WPN29UyCLbv24r6yaMPlu5L8CcXW/afjvA/pByN2ke7aj7+R4J3zPoKRN31THYX+X5ojD4V6SGFBuzWaQ9720V6g7uBXx1H+GsXWOXNUxXp/00M4ZdMWFc+xgI0EREREREREufE0ElQ07MbeA23Y824M77YdEhVLUcmUDyZ0GgfkUHj5Wj46TvwVFc8U2tEv1g8nDAHuuawnGgmsn1rc4jy/QD6osCtGEXTXfrz8jQRvfv3rOLRjB4b8rRVtu3ajIBZTT/tXrQXCO4UDxNFRB806ZOIY7i+M4fgBA7D3jHE4c9kyK+wYwEYCIiIiIiKi3HgaCTZt2qQXU2/hbySg6NhIQERERERElBs+8Y2IiIiIiIiIlFhK0K+pl+JIgiNjjyS4++679RIiIiIiIiIKEtuxYwcbCXoxNg503jvvvKNfERERERERURDVSLB8+XI9S0RERERERETHKqeRQA7LJiIiIiIiIqJjl6eR4JZbbtGLe0Zbm/yJxfwYM+80/QrYNnurfiWWjxmjXxERERERERGRib9uQEREREREREQKGwmIiIiIiIiISGEjARER0RFqrZ+IqiY9Q12sFfUTq8DiJiIi6lrd1kiweslczJ07F4tWuM8H6BFNVYjFYp27qNNxdDqeo0ITqmRZ9MKCaKrqpccn7Pzh+ZVHvfD87Orjy/MnkPxciMXyVdFsQmJhBWrK9Cz55Pv9V4zqOqC2vlXPExERUVfonkaC1UuwYcg0zJk0Wi/oQWXzkUyU6pkjJOJIpVJINVbqBceyMsxPNaI3lkTZ/BTmd8nFeyd7s8LOn15/fvWl3rxeeH529fENjb+nj1/P7l9+LuSr6Fvra4G6alF17U7H+PuvrAYVCxN9JP9ERER9U/c0Eky6HDMnu7820Cusr8dE3dsWm1gvLrtMuvfDniL3gti9JlV6e3EhZ/fqpe0jC72+vUur1yuGibrnxOkFazXSn9YrJi8ijbCAOOVQWbWemT5P3O6+XWb5TER6p86Rll+eBPWk2mVRH3T8zfIT+RfHc6IdkSqbOGrWNKDc3t5fBqHl1/XsY6ymqvq0SoUn3Jf/wPMjSv4Dj78bphY7x8p/DmcTZfvg8zP0/A9gbSv2FfT+y8PxDzo+nYo/0vEL2H+k90/A8Q/Zv3lsbE5ajHiCyseMI+z4OuFycuIPeP97ZB9F4Ekf338euRyfzDiagIiIqKsds88kaKhJok72tokpWbEQCeMKqamqFvGkFabC47W+C61sdK9JQ4u1fSNQXhtHUu0jiaVRrmnKvCMdZK+X2SNo9YK1oHaWm/5UMo5a4yKrqUrss84IK29AaSLp9Krbca6piYt01lnr1RVhoxUsFKHOyH9dcpZxoScvoM3yqRPlU44GHSodefnlSVBPqgwTy4OOP5oSbvmJqU7kbo0OQnE1mlNJJEor0ajDU6lmVHu6EoPKr+vJC+/aeNLZfzK+UFQqdKAgL9LN8FRdEnHj+ASeHxHyH3z87Z7FUsTHidlxcfGqFInkfBESRdj24edn+PmfXZT3X2ePf9jx6VT8kY5fwP4jvH8Cj3/I/stmiPdsZSOajQRZZS4Wz7COcKfO30xKxftdrmN/QAa9/w3ZRhHw/dd17z8HRxMQERF1qWO2kaCy0b0oKi4qQct6+yq7CYsb1qAmbveExBCXV3gt641KQIjKOueirbRiehcMRV2Dkjrjok5cOC5wGiFE+lsSbu+WDMtye4VsOHAujMvKjIvE9eIi1s1/uXmF17pUVAoWGBel4qIxmRCXibbOlp+3F8+ZnEpYWHg02Y+/UDYDKHfjLhflmczpvoWA8utyrViarMACo9ZQXN0sLsTt/IrjA28lTFb8GsVS/wV39vMjSJTjLysasvIgwkVlqc5TyYlyfAO2Dz0/XUeWPyno/Sd15vhHOT5deX5FOz+67PNTVjr1urIybVVuZZy6UhoxfVLw8W1BrTjPVCW12VfRj/T+F++zhSXQ7RYGvv+6/v0nFWN6RQsW+wuNiIiI8uKYbSQIZPcsmZP/QrJH2RfM0ciL+OjERaLZSyqmZCKX7YVOlV8xqpt923q2DwvPB3kRbMSd1pMbJA/l19dFOf5Ni3XvYoPvQj/i8c26fXcIev919fHvA+dXZ97/xdNRgYVY2mpVplXluXU9WkorMD1/b3BhDUoqROW1Ib1yHun935TAwoqaHCu23eSof/9Ziq17DozGCyIiIsoXNhKkKUONf/h5D3B65uQ9qGldhWtQ40mg7L2K64voMswokRfZKkAQlYpa//ZBNkJcEsOpA4n9z6pp0TOCuIiP+4Z5NiVqjOG4vaP8OqOpKv0+Wq9iFJW0wO08rTJ62kLKr8uJtKHGV/7yHmE7T+L8QK0vf7JCNiOHCk9Q/iMcf7l+OfRwaVFatfr+5qiCtg89P/Mh6P3X2eMfdnzycX4FH7/OnR9R3v9B+5dha5BMLIbspped+rWzFmJNSZEIkfJx/kqVmFFdjWZ5S5inl1wmJ+z9Lz9T5Z0Gnmqzxvdf17//bH3/u4aIiKjX2rFjR2revHmpa6+9NvXSSy91yfTUfd9P3Xrrrd7pZw+nrbd169a8TalbxfWLnjzLGytTIttiKk0lkiljHqlKcdVjSaYSpdYyZypNiKVZwpzwxlSlPS8j03GXih0lE6Xitd5nKCMeVKYadTx2+horK1MJFZ+9jpl2ydxehIn1ZRoyhVmTN11WWu0we1/GOslEqtTYvjSRsOJ0EhFUfl0t6PgI/uOd4fg3VhrbySlT2o3t1DHSi6Xg8gtJX2h4FP44/Oed/xwww8PPDyUg/xnzkFb+Os4M5R8oyvaB52fE/AUIe/917vhLQccnH/ELgccvYP/+8s54/AKOvy1o/yrM3qeVFrN87WXu9mb5hB9f6/1t7dN8r9v7CH3/i/S5n6eZ8P3Xle8/LxGf//gQERFRp8VkI8Hy5cuxatUq3HLLLeI7u+e0tbXpV503Zp77awrbZm/Vr8TyMWP0q76rqaoKmG/cEx1CPkgrUdTcRT8HSHRsyfX9R0eTVtRPTKComce/t+D3GxERUf7xdoM+Rj7Mq7xB//xV1jGi8kLWfeiUfDgXL6CIOi/a+4+OXvKefTYQ9CbywZD8fiMiIsovNhL0Merno9S9oGLKemXke/gUr6CI8iLa+4+IiIiIqO9iIwERERERERERKWwkICIiIiIiIiKFjQREREREREREpLCRgIiIiIiIiIgUNhIQERERERERkcJGAiI6hsifB60Cf7yQiIiIiCizbmok2IoVi+Zi7lxrWrRiq15ORBSkCVWxGGJV+arWF6O6Dqitb9XzRERERERk6pZGgtVLlmHvmXMwZ441nbl3GZas1oHHJPZmUk/qS+dfGeanGlGp5/KirAYVCxN8/xERERERZdAtjQSTLp+DyyfpGWHS+0brV32VrGTFEJM9nGKaWFUlJrPKoXs/7ckMa63HxFgcNWsaUO6sMxGROzabqtQ2VfUyHr39xHqRIoPahx23SJ8Tud0rW6XTJyqKOj5vHAHpV7Lnv6lKLhPxetLgq5BmTZ/LikdPVfW+Sm1Y+gL0dPnZ62eYvKsZYWn594X70m+HyXS31k/0rhPp/AsqXzdMLXby4zvGWUXZ3tx/+nsjMH+RcDQBEREREVE2PfBMgtVYsmEI4kajQZ/TlECyLoVUyprq0IA1OkhqqqpFPOmGJ+O1bkWruBrNqSQSpZVo1OGpVDOqi63gUGXzkWqsRENNEnV2/BULkfDU0IpQZ+y/LjlLV7R0r2xDi5W+RqC8No6kiiOJpbrOFJh+KSD/ZfNTaKxsQe0sN32pZBy1nkpctvRZZMWvNp50wpPxhaJSqwOF0PQF6enyk/vXy/3T/DJrlfD8xzzhqbok4kb+5TGQeVxTExfpqNPrFGGjDIxw/gWXr92zX4r4ODE7Li5elSKRnC9CogjbXjZAmfuvE/svF2eYKzB/UXE0ARERERFRRt3cSLAaS+ZuwJCPTsZpekn38/aCO5NTiQ0LF8pmiNqhG1beIirNdg1PVDsWN6xBTdwNj8saXst6d/s8qGx0K2XFRSUiejP29aISaaTPrGFJlXVOpbC0Yjq87RMR0h+Yf2kNSuqMSqOomC4wKtHB6WvF0mQFFhi11uLqZlERtOPLT/n2WPmFjiSIkH80otms1ZfNF0sWixCv0kQSKfu4lJW5xyNQlPKVFX1ZeRfhcdnYYjYyRHj/BG3fuhTJigVGfGLdZAKles50ZPmzFWN6RQsWs5WAiIiIiMij+xoJVi/BXNlAMG0mJvdcC4FQjOpmu5fSmJqrdWUvLFySlRwjzNeTK2ovqnc5+/ZdSVTSzF58MSUTJTosotD0h+Tf7iXOqDvS1xldnL4IIwl6XJTybVqse/cbfBXtKO8fIev23afYuufAaLwgIiIiIqJuenDhXMzdMATT5ugGgtVL+vSDC5uqgp4hUIaatOHrfsUoKmmB03kte5dzuqc6yEaIKjucOnprPWbVtOiZKMLTH5x/aQ1qPBHI3vE4pqtaYlj6RNmgxrd/eY+6vc8o5SvZ97VHvVfe1vXlFyw8/zNQ6yt/ObpghgiJKuj8i5B+uX459O0KorRqvc9TCBW0ffF0xH23ATQlajy38+RPZ48VEREREdHRpxsaCVbj5Z3iz96NWKZ/AnHuarmgL/MOx47J+9KNbuDi6gWq4pN9uLWonswoceOQFaaoPeGqgtWAhnLjwW9iXt6fbVW0rIpP3N5vPImKBMS+ZCVTVjbL0dBQ7txjLrezHszXoteJkv7g/AOVSMj72J3tRfgMO39B6VMroGy+VXF0t5f3qLtD0qOUb1a9ovyCheW/bL4eqm+G19jlrxtHdJ6scLdsbUHnX2D6dXnJ/KpGhqaEel6CU55hQrcvRvWCOGqNfdfGE6h0yjxa/qLiaAIiIiIiIq/Yjh07UsuXL8eqVatwyy236MU9o62tTb/qvDHz3Hsats3eql+J5WPG6FfUVZqqqoD5xjMJiHox+aDIRFFz77ndg4iIiIioB/XArxvQ0Uw+eb+8Qf+8XqSuZaKeJR8MyQYCIiIiIiILGwkor9TP09kPq2PNi4iIiIiIqE9hIwERERERERERKWwkICIiIiIiIiKFjQREREREREREpLCRgIiIiIiIiIgUNhIQERERERERkcJGAiLqRq2on1gF/jgmEREREVHv1H2NBKuXYO7cuda0ZLVeSETHlmJU1wG19a16noiIiIiIepNuaSTYumIR5m4Ygmlz5mCOmKYN2YBju52AvanHtq4+/r38/CqrQcXCBM9/IiIiIqJeqFsaCU6bPBNzZk7GaXq+75OVsBhiMWuaWFUlJrPK04QqHaYmM6y1HhNjcdSsaUC5s85ERO5YbapS21TVy3j09hPrRYoMah923CJ9TuQ6XSK9VvpERVLH540jIP1K9vw3VcllIl5PGnwV1qzpc1nx6Kmq3lfpDUtfuKD47TCZrtb6idY6uZRPUP4iHf+A+O3jlWFSq0WIPzB/9vmld2mu6+ps+XM0ARERERFRb9WNzyTYihWLrNsNlu09E5dP0ov7oqYEknUppFLWVIcGrNFBUlNVLeJJNzwZr3UrUsXVaE4lkSitRKMOT6WaUV1sBYcqm49UYyUaapKos+OvWIiEp55WhDpj/3XJWbqSWIb5qUZUNrRY6WsEymvjSKo4kliq62yB6ZcC8l82P4XGyhbUznLTl0rGUeupZGdLn0VWXGvjSSc8GV8oKr06UAhNX4iw+GUeZBmvqYmL/dRZ69UVYaMOD99/QP4iHP/A+OXxd7bzTvPLRHiE+APzJ+JPJkrVepK9rqmz5a9wNAERERERUa/UjY0Ep2HyTOt2g0lY3YO3G3h7wZ3JqcSGhQtlM0Tt2g0rbxGVZlVDk5qwuGENauJueFzWQFvWG5XkzqtsnC+q/JbiohIRvRn7elEJNtLXoBfbKuucSmNpxXR42ycipD8w/9IalNS56ZMV1wVGI0Rw+lqxNFmBBUattri6WVRG7fg6W75h8btKE0mk7HyVleWw/5DyDxQSf9hIghxkzl+YfJ3fxZhe0YLFbCUgIiIiIupVurGRwDVJDiN4uadaCYpR3ez2gjpTc7WuLIeFS7JH3girSyJu1tBKRaXZDJeTZ/uu1Ip6sxdfTMlEiQ6LKDT9IflHKeLj9Ms03ZG+Lha4/y7OX9hIgu6Qp/Ivtu45yLFxgYiIiIiIulK3NBKsXjLXM3JgtZjZO+RkPdf3NFUFPUOgDDVpw//9ilFU0gKn81/2DnuG43fGRogqO5w6ems9ZtW06JkowtMfnH9pDWo8Ecje+zimq1pkWPpE2aDGt395D7y9zyjlK9n3zfuehxAaf5iw/Ucp/6DjHzV/QTp/fjkjU+QzDjxDIfKRPls+4yIiIiIionzolkaCSZdPw5AN+ucPxbQakzBzcl9+jKF3uHVM3tdvdOMWVy9AvNYIl5OvklY2o8SNoxxojNoTKyt8otLWUK6Hl+t5eX+51ZlvVbzi9n7jSVQkIPYlK8GyMlyOhoZy5x5yuZ31ULoWvU6U9AfnH6hEQt6n7mwvwmfY+QtKn1oBZfNFNduzf3kPvHtffZTyDRIcv25c0GVqhXsbEIL3H54/Kej4dzZ/Uvb4o+SvDiV2mEh/nX5+gT1YJB/ps3E0ARERERFR7xLbsWNHavny5Vi1ahVuueUWvbhntLW16VedN2ae2wixbfZW/UosHzNGv6Ku0lRVBcxPv8efKBP5IMlEUXP33S5BRERERERZ9cgzCejoJX8yr7xB//ye5zkFRJnJB0eygYCIiIiIqHdgIwHllfrJPPthdqz5ERERERER9SlsJCAiIiIiIiIihY0EREREREREZEiJqUNMbeLl4S6ZUh0HxS4OiL/vpk1I5e9ZdZS7Y+7BhYMG8cGFRJTZiy8+oV8RERFR/smKZ0r9MpKqgKbMeflSLNMv/WJ62yAiJvFvlggoElnOsZiYUofQr+CAmA6KZV1TYS/AYRTGMse/r/39eLd9pHp91lkXqb/UfdhIQESksZGAiIioM2QFU1QwUu2qrh5TPdFy0pVPVSlsF+scdiqfsqIYi1nrqNdZKqQFsTaxXnBdIZXqhw4x0ZGT5dy/YC/6icp7T3rz8Fl4+7BVn2MjQfdjIwERkbyYERclGzY8Zc0bUinrsoZ3ZxEREfm5jQKyoi97hQtj76pKZmHskKho7heVTrFMfMcWxg6I1/L7ligcGwl6Fq96ieiYV5jajQHtSQztv9EzndBvC4b0fwUDC98WFzoH1AWP1cNh9XgQUe+29f6rccdKPUOUF7JSLCdRKRbfB7JnXPa8FuCQ+HtIV5Ll90X6JL9HzOnlxXPww1Xpy/1TIdLj6g1TP9kYEHsHgwp2i+/K7Th5QBIjBj6PkQNX46T+G3Biv604vnCXCH8L/Qv29bkGgj1rH8aT2/UM9XKt+OnFVXhEz1HndXMjwWosmTsXi1a4PfvUWU34yugYRn+lSc9TVI98JYav8NOky/Sp8u3Yi8K2TeqCxpyG9d+Ek/snMXLACxg16GlxAbQWJ/R/STUayIs22TsiLw4zNRqsvGPy0Vc5WXkHJk/u/fmSZS/TefX9nf2uWYk7RDyT85hhK213iJh7p+5NX/7L12slFi6bhorz9WzOujp9XUS/T9WUKe1GeMb3SNbwrbj/ah2vMaXtIiR++/2ZLdxilX16uD4mzuQ/V71pzD1+q2FpypTJuPjiKbj2N5vUZ7zqEZf3Zsf2o//zt+NL//oJ/Pv1n8JPVjyLof23qEblkwasF98XrXjPgBYMf+fnWPqjWZgnp/t/jtjAv2LUwOfU94g73Y+3+4/HtyebyzJPI497HsNFHL1pkvl576Cn8L7j/uI0CsgGAXeI+nY8OW8e5uWxlr39SRHfvCdFzN1hO9ZuPh0TTtWz1MsV4/qbgLt+2qrnqbO6tZFg9ZINGDJpHIbo+WNXPlu7yvDjnY24Ss8dG/JTfp/4cQo//oSeobzLXr59r7W3QN47KS58ji/cLS6EXlSNBuqiTVwMntBvKwYWvqV6VGQPkuxJkutfcPNy3Hx+XxxxIC+ys1QSz78Z8645Q8/0lID0SaKC8svT52HF7ZfqBZ1xPm5ecTvyEZPt/JtXIC9J6yLdm778l69p6/2/BL74Obg3H+aqa9PXFWQFd/IvT8e8FSuwQkzzTv+ltxK/9X5cbYR/cctt8NSTw8JFadyuw1T8/s+DsO3t92e2cG3lHb/E6bdfg4yfNpfe7my/YsXN4ii5Vt4xG1u+aIfJ+GdnbNT0xm+NDCiQw+G334f/eXoK7l/xMP6y4jf4VsdX8ccNG1UP+aiBT+P9B3+K594ciN/89ut44JdfxQ0n3Ift+zarRuUh/f6Bwf1exXH/aMSiP+zCJ2u+hO/I6YtFeL/uSZffI/a0N/kcjv+n8RhhLMs2DYjtVb3xXT9tw99/vwS7MoZ5p/CRAafiwtlTMx/DI3TqhbMxtZu+gvasbQbOmYBher577MHapu5qBOmNOpn/T9TgygcTHE2QJ93WSLB1xSJsGPJRTD5ZL+jTZCUnhtGyB19MF3+lSkxmT77u3bcnM2x9PS4eHcdtrQ2Y7awzET9dr8MjMePPsK3ahx0u0pfWqpYtffaohCodLipyj1RZ61xcD3M3spfY2d4M0+t/5adGGnzb9nj52XkSk7enO2L+Q8vXzJ8bh7uvgPxFYJe93O/6n0604vCUcfb4rW1Fmjx5SK+wZz2+Ssjxy1q+QsTjF7T/4PzbeXfjdNaRaTTSZk6TJ0/Ab9dZ64srAzTJ3g89Na3dowNse9D68C+w8Nc/wW8afoAnnvkVVj37AN476C8YPmA1Tt78Pdx+85X4xvWfwi/+ajUe2MNF1cgDcRF6/Sem4rJLp+DSS6bgmt9sVvdxqklcrFqjEuSU7QnOvp6yO+4Qk/cq2Oypm3z1/WILTffw2aun9bjLC/zJs/HzTY/iFnv7yVenX8Rvl+tliF/x9fT5r9DVPtzw9J68gPxFSd/5N+Pezx15tdCb/gx5F7KWr+YJv+P+rI0aqkLnrGevEVx+5jFzts+QhkysbUVaPMcge4NL5vSZx0ds6zunwoWVb/b8m+lR543RY512nol40kcRuHGr1Z3tzTIITl94+Zvv4UzTFiz60mRMnWpNX7rzdjHJZ6FkCr8df/nL7er1nX8x48g+nfa5X2DFvZ/FaXpe3SuuHghnTdue2YxL/p8bfv6si7H1mS0Rw0/F5+79lqiUW2Eyrc88NhaTVWOoNYXGv2MTxo2RXbPW/CljxXF92d1erbPoaswb+x187hSr8m6G2RV67zJ3Ov/mx3TjrJ6ffIn12WrcHrD9t1djwQdvxuc/0I7BAw95h8t3bMC1t7wfH9G94x+/ugxnv/1np4d8z449GHuRW3E8dcLpaplrO5786zCUz75QlFaQLL3UEb5/1jbZ4aIytf1J9drtrNe99/Zk9uLb66419tG0VsSoqX034oU3N+ExO3zew0hLQiBz/5m3tUYD6Mncv+YJf3Jt1kqjvBXAXc9eIyD/gh23LFdn+wxpkPFkG0UQlr6g/AXuP1L5B+XPDVOL9fHOaeRFLzv/rr/+jozfwdlxNEE+dU8jweolWLb3TMyc3JkLt17kkQRevCmFnTut6SY0iGqT65Gv1OKsJ9zwJ86qdStqRdVYvjOJ7xZXYp4O37mzGdcXWcHhZAXNjL8OL15Ujgd0qKUINxn7v+nFWZ5KWPb06VEJD7RY4fOA2XfF8YRc58okluk4ZCXtrrOSzvY7b0riIjt/n5gvtqvEA7clcZMd/5UL8ROzstij5SfINMrtRDq9ouU/vHzjbv6eiOOu2Q0o/m7S6VUPzF8Esodepr31tjguerHOiuemInG5ZgmKX24776oW3HWde3xUGo2KeODxlUKOX/byFSIcv7D9B+e/DNOvEl8T313gxFl0/QKxv1J894YyN22+acWKtfjMeGt9YCjOKZ+N2bOt6Zw9f/Z+SW8XX2rnGOHYhDfFYjl6YFDhWxhc/E/42X9fj9/VnYPLPrBKNR44w0UHtODkof1Qe/8P8czj/4tnVvwS1Yf+U5xjO3F8wU6x/WtOL80A9WTh/cZkNTb0W7UAu/7tETy5QkxPPIJrBi7DKwPanBEMz9RPQcO4e/HEimViWo4n5mzB1XYl5Pxve3r+ZK+xp8f9tM/h3hXzcM0ZZm/hvfDXuR/9+RZ8UYfPm7YMC436meqhm2dva/Vkeitwp+KLRnh6T+NCb08gHhUlrEVM35GTFWAz/V/Eltm3iBS4ZCXR7Ald8cUtmO2ryJrh805fhp87GcjgjGusXtebrdpsWPnZx2zTz8X5t+WLOg2n4h86PIg1SmATfnmbe/xWzDsdvwxqZEhLn9FTK7e95VGxyjxRMVPBIaKUb/b8n/a5e9Uoh0tvX2E1BJ1/s3X+yjT6EpB5FIE9MuAMnP5+Mfv+08WrM3DNPLs3eisWzfklxv76MTzxxONimo2X/u07+HP/DnGxZN1r/vFbxPuu/hK8tuBq3LizEk898Qc8dc1ovK7fp1aFM73X1ZlW34e91z6Ev6ywpq8NfQKHhr7rhCfvvsYNv+/9eOTHT+CCr/8IdRf44gmckvi/b30C//q5T+D/vTHTs+3gwR04qb+xbv9DePeNjZHDPdPLT2DdOR/GVGNZ2PZFFV/DpIettGVK36DVt6tlDRXD1LYjBvvL812MaPkPZ/t//dZ8vOYJN6flmPvw+/ElFf9uDOn3Mk742+2YF5uO+2cdxsnD3sQnipPe4fLvOwHvtjzvVFxkb/KmN97yVPT83tjztn4l7HkLGAustStBWSpo2Xupg79/tj/Z6H7/lA/DXx/bhJPOLceFujK7/clmDDO2Lx/W7FbUTr0Qs6eegU0v7ME5dvjYLVhrJ3DYBJTNLse5J52BqTp89uxPY0LkrnRZgTT3PxF7Gh9zP78FWUn+67ByHS6mc/ag0ahIyoqzGV4+bIuoNOrATE46F+VyXV0AgfkX5EgEWQZvvtCIxj0TdRqGwjiCSrbjE5a+sPwF7j9C+Qfnzx65cTKGnShmTxyGk8Trc8vDGqxMvev8++lPb879+52jCfKmW34jZPXLOyGuxDF37mq9ZCOWnDgHl0/Ss91KVrJlT6aetRUn8MTyalH9CwsXPjEDkD2QKkBQYaICojRh6QNr8MADMdymlyjF61UlLJe6bEbrl+LFKxfgx05EomL7RALrfqJnlfW466IYZus5QFaQ9Mso6buqzqpgiVpX8ZXT1TK3Diy2RyOWX1+s5wVR8Zq3VPZGl8EeXX7VvPnO66IzSrBukyxQvU1Pll8UgfmXQsp3XQI3/FjPikrx3d9diOv0bD7zJxsenOPwCbvso8S/BuNvanaOj0rjlVWqEaSoKMLxDTx+nRVh/1rm/IuXNyTE8RFfENfrc/CRBG4bX4edMvNyJMHsBrnUo3jcINz4o19j2nA59xb+2jgPj6kQSXzJTtAvpVPHQFz5YZ6eVRcpZdm/gmXF3WqNPQgU7gWO24GXGxvdhpWBIv6TWjB8oJyRF1myJV2FuMQ+PvXpSeLrW8Q0+X247O5KLGxO4dChFA6OvAJLrz5RpLIVKfHZ+tppX8XCWXKPO8R8f3RcMBs/Sd6LZEExJomP/AEDYxjSXzY4yF9sAFL9Uhg8QFaADqh5iMrQoOM6RGXnoNibtY6psD/wqf/8Ji6MHVLzY08fi3+89HeRT/nLMU/jmSe3YPmTU2GW8vGnb8GO2HlQvy1TsAULr/kublch0um4+vOygUPPXnA+Bn5iKv5Zz+L0OWi45zxVSbMcFnlIifSLbfSSjApTopIhHyhmbydtwwPXXoN77RY12+lfxM/v+QzGbHsKL3/yW7jpdHub8/Cd+XPwj99ajTAqfwPq8KuK94nXep0LvonE03dhlcjfx0T8L/xjCm696X1OesdW3IM/V8hXbjr6DdiE+ddNxZaxtfjzLz8mlthhEcpPEnkrvuEXuOcquURse8F5uNCIP0i/AVsw/kv3OMcPp8/ArZ+8C89uP4SxegeB6XtpDiov0GUvt71hGf5TPbgtwv6jlG9I/i+ceglun38fdlwgjpc8nguW4VNfegRjfcf5hSfH4uJ7Mp0jYp9PtOEudY5djLon7sZHYZ37se1P4c1PfQNfP/0tWD/Pdhpuv/+zGPHEbnW/uXyPyJ9fKzzlXdz0/evwuXNkvv8s3pPAlRB/A96/5WW6wnHBKFw671r8caMKAT54CRrL2kXYKjGzHSeK+X+/YJW17rjR+OH3xkFUxTFq0MtiQYT4tX/70Tfwb+Lv9ifvxYZd7c5F/MDxBzBg+CoRnzWP4btx5UcOiXlr2HhYuGnPu89izmc+LcJk2i2h2+9Zi499U6RNp0dWxt4WYfYn6PZUK2YPb8UfF92r5s8Qn/wbds120i/d1vQN/UqQvZPPPYBzzRUU2aPZjM/8h6hkGenbvv9vuDD1Nzx4n14gPPkeI35RUblo7MNonPeCNX/GuTg3lxGwb+8RlaBNOGOqqOTIOGXvqKgknepJ3x7s2HwSxmT82gz6/tmObW+ciwkX6lmZ1nO3iPPDJsI3vYFNm+ZBp95yktXIYZ8fZ0x1K43Dhp6EN94yQ4OEnH97dmDP2I/jQicqUWktPxdvrNWzMn2YijKz1isqjlO3yYaUU8V/olz2nI6L3AhEFj+N2eb3r/Im/to0D2+ePBWzPd+90fIvyYqtk45T5b5N2Y5PWPrC8ucK3n82UfInGwrEOa2uUWRl+9NG3FE+P3rz+RdVMaZd2aI6Jz9hXjRSzgKvsfJl0uVzMGeOnqaNw+hx03qogUAqxvXL03sSd9oNAKHhkuxxNsL8Pa2y0mSGy8mzfVdqxU/NXmIxPfHdEh2m9Wj6pN5cfmEilK+PbCTx6Or8hcZfirNO1y+PSMjx62lF1bjpqgY93Ewcr7sacNV0/W0fOpJAfIk+4bZyq5buc09Sm7rkl7Ab7u8pCBYW/zBMKDPitifxBf4eWWkRFfd+sffisuuvRvXX56j7XW/75E6sePo5dS/skH5vouQM+dyE9WqSD10cPrAF4ycdUBfK7x20EmeXDsA/n2aNblAjHE49gH/+4AbjgVQbMOmCgzhTjnro35o2nTKmHz48ylg26iCmjNmi51/Bh6+6EkuX/wDPmtPcYpyjwlfgb8s24D+MsKX/8X7Ehxrx9T8Rdxrhz960AQ8vedAI34L4hw5inDOfZfKky5724pq5Rtz2ZKdv6B582L+NWDbl7Ff0vMif89qdxp1tp0ek7ew9OMUX7p/Gnf06Zn7hSnzx8HLs9oSFlZ+eMuYt2jTu7A/i8rO9y04Zc9BzDALT9yFv/s459/3R0xKlfMPy//Hz8N8f+h22bhav9/wfUh+6Et/4uA6zp80NSH3hPEw3l5nT5uUY9PETMf3jz6Fjm2yg0w9hG/EqpsfXqkqv7FmW6w494R1MHPOaut/8uMLXVQ91/wEpDFENUP6Kc/b3r3sJnNvnh7yIdkWJ3+vUC6cC24I/n05W3Y7ZZQ7XFakItRtzezU034humDj+ZvJUT6udL1HBPMPopczo1DGiKuSjhjXLHs30XvAo8auKn73OhUNFTodmLV8prXxEpcsZpj7sAxgrKl6yGuTYvhabx04wKm+2KN8/Xt7zQ5AVPmN7NQWcH7nJ/fzrGm/g5LHn4qRN20S11Ccf+c96fHqBKPnbvk2P3tjke+uHHb/efv5FV3R9HXCX/1ZZylW3NBIcbR75StA98GW4wT+8Pk0xzhjfgk12HLJ3M+2+7yyKpuMs3zCaR35S4/ZKYiNeRBxOHXB9Pa67rUXPSFHSF6QM01Hry7/s/Z3h6eUN0j3lZ9+bnn6/feeEl+/08QuNWxOsSqoravkfafqjxL8Gt/3ErNS3YtmLcUxTrQjhxzf4+EURdPw6f35JcjQBbhPvEzmKAAncEHnjt8XX5DD3GnbPWjzha3bf/mSu92iawuMPE7z/UzEGzb5w2bsxxnPBs/ed3VaDw1vP449P/h2jB5sPxeqH0z74OgreeV01PAx++Xd4YOkyHJavxTTs5EKMOcF6raYT2jHu5Df0/DBcftE67HjZCPdMW3HcB07AWHt+7zKs2fIa3nucu87rT/8Cm/e68zL+8aPfduf7deCs0tfQ317Hlz5n8qQr4vTe4Sjd8wReN5a9vvEpvMfZ/zB8fPSfvenr9xz2jT4Fk9RrkbbRT/ny/xxW3+fN0/DRxfj4RePw719qR4sn7WHlp6fQvMl9JvDAfb/z5EVOw0e/hZc3Wo1K1rQe7xScgA+/11wne/o+XroO7zh5WY/NGzdkSEuW/Uco3/D8d+DSTxejbeMyse+nMO6i4TjNEy7T1I6rLuowlhmTPF+ea8cNt30Z9bfNxNnrf4DnXtIPYTv5/Ri2ea2n4rF97QvqdqJ8CX3/nrwF7i3u4qL9r0H3qqSTw53NNoftTz6GN4xK7LAPDPPcQ7997Ra1zBYW7tizA5tP9n6uSJG3P0Iyf+Z90nIkgpk/dc+3eiaAbiDY/mSnfsJODZ82bkwPzZ/sOfYcQ/mZbzYyyGMqR7JnKpOw74ew8+NUTDCHbx+RYRh68ptQnbuSbHDJeM9+BsM+EPL+Cft+EvvGC770yxEh/vfMGRgzYQLKpgKPedKWj/wHHZ+w9EX7/g0WVP4R8ifXfwx6uH45hv3V+3kQrBeefy2/jvzMHa/O1nVIiu3YsSO1fPlyrFq1Crfccote3DXkwwuXbdyrXo+elH67QVub/Cmx/Bgzz72JZdts9/QaNMgZsHnE5D3Ts82HAMieW09PbYZbFvzreIY9y/uz3eH5oeTD3y5yGwaKv5vA+Ntq8MBVjdj54zL1oLaLblujQyvx3e+24LbbgO8+Yd/7nS19RfjJaP18AxnX9MUqjXJY992YJeK045AVWPM5CKVu3Ea+rpqXwo/hmxeZ7J7ys9PoD8sQt5RD/qctCytfb/lcdVUl1p1VYwyhj5C/rOn3l71klL8SHP8jX6nCprNkmu08uMfGEnB8heDjF1S+UY9f0P6j5N9ip9Obt8wK2zZiQNtqvLHrr+J78WE0vvCGDjkD5577Jl54AThX90rJi9DHzO9F2XJutsSHDOcLiz9M8P4ledFi3gcq70k04zbDz8BUeaElIpTDY50eNXWhYccghyzq4YHOch3n2+567vYZyiCH/IfnT8iWPsEbv3bGVOee1VByeHCje2F70rnn4mSRwE1OHGHl68+/N9zKn5VmEZGT12jl59+35N+/ZK/nLRtp+5NP4q1hsszdMjKPfXj6vGk444wzRCVNXLB7EpB9/+HlG3z+WOx1MsQvzo2mt/zp0aKcv4Hpk0USpfyzy/X9m7l8g/jKL8O5b6bBM+xZCwuX5Pts7dBPO+eNKXh73zmc6f0tmO9j8/yUPGXoyZ8vbs2/vZQ1/rTjfyTlY6bDd34EnZ9C2OejP4/p50fA+8f43FR5RqbPbyHg8zVUX//8DDk+YekLzl+E/UuB5R/l+Oo4M34/Bws6/+JD5bIdWHHvMqzvADo6Uhg37ky89p5J+MxEe0TBm2j+7SI8/bqeld7zMcz8zESctPUx3PNHqweo6JPXYip883a1Ta/X0Z7Cn5+PY8Y9teqZMWeddZEVHpm4Xrx4PW7wXFtTLrq1kSBMX2kkIMqFbLT5yRnNoRXV7iIbCfDjHBql+ijVWPZgha/xJTOzkYDoaCYbCXBhDhf9IYIqi91PXkCvxdCy/OWvp/Wu8qXOyf/52ZfPj5T6AR/9bJxUgXhZgJT6dRC5TP7Wj/irZq159bpLvYEXFr2Ak2ZeIp89ST4d6Kemto5BONwxBO0YhO1NtVg8+vv4ynl6pTxqw3Fo71APa1JybyTofdfffQ0bCYjyztebrkd49AaeUQC9KF355B1Jk3mUgR8bCehYkL0HNhe+nqwjjocyY/lSkL55fsgGgRQKrSklKvyxAnSkrEpnKtUfbamBqvIpvo1F5bO/qhymVKW0Pzo6Cq31xEQ9Tf5CjfwZYj176e3OL990tSNpJKDOYSMBER3z+rVtFdMavL7zefGpKPsvrN/VJiIi6iyz19wjw6JIevnXUyomGwPkqwLxt0BV9g90nISDHcNxuGMw2nQjAFFUbCTofmwkIKJjXix1EAWpN7F98/+hf8FeMb2D/vLnzlLtbDQgIqKM7Mq/Wym2hsa7Q+UL1F97qLZJ9qC3pwr1XG4KYvJnQ/N3zZxPMl+HOoagIzUAbTgeBzuGeoaNEx0JNhJ0PzYSEBFpL75o/eJvAQ6rxoIB8ufOdKNBv9gB2SciroA6xHVfu7wSsm6VJCKio5q3McDqHZfzsuLfnjrOqRT7h8qzx5woP9hI0P2OuUaCMWPYSEBEOeo4KK4S94u/+5A6/AZw+FWg/U2x7CBi4uoxJUccqG6jDvFHTOq1uqokIqI+JSb+L7Qm9Uvh4m/hIMQKhiBVeBJiA0YB/UeK8OPV2kRERyM2EhARHQmj4QDte5FqF3879up5MaUOi5XsxgKrwUA1KNiNB7IxwR6JoLqp9HKHscwJ969DRD3PGmJuvRR/U7KSac/LSib1XvI4ySfry+MmZ8XrgoFA4UlqivU/mQ0CRHRMYiMBEVFXUQ0J8nPtkHgtJhzWf4WU+KsaEsQfuUy/dqTsbfXrtIYHyfqb1viQto4dZi/zM9cnOtbJiqOu5Cuy4mjfO64rlfKvagAQfwsGiD/9RT1zIFLir3yNmFgmib+xAjFPvVJKHZ/B1jGTjQP2ayKiYxwbCYiI+hKn4UHyNz5sxK8/+wuMXfAtXGA3OvgbG/yNEVKmRgqiY5Wu9Euq4l9wvFg2RFX2nUpl4RBWKImI6KjVTY0Eq7Fk7mrs1HPAaEyaczkm6TkbGwmORBOqYuVoqGxEav7R95v3XampKobFM1JgseVOll15g/W6NJFEc3WxNZOL1npMjNdgjXxdmkCyuRqRY2mqQkwn4Ej2b6c/87atqJ8YR41KmH8db5itstE+j8LCLa31ExHXK2VMQ2fyJ7aduL4m5zIhIiIiIpLkWLnuMXoS5syZo6f0BoJji6xIVInqfT6UYX6qEZV67tiQn/Irm99XGwjyef4cAVEJrY0nkZJD3MVUl5yF+lYdFpWsBIs46nQcqVwaCGTjQm0cySPdv53+xszvmqYqEXedTpeKP44qT2FXolGHySmZKNXLbSHhIv2zFlYY6ffF39n8ldWgYmGi584PIiIiIurTuq+R4KgiK2kxxGLWNLGqSkzmJbns3XfDY2aYrADEZE9jA8qddSbmWMky48+wrdqHHS7Sl7ZCtvTp5SI/VrioiMrKnHw9sV7k2iV7Yp3tzTC9flW9kQbftj1efnaexOTZbdT8h5avmT83DndfAfkLEyX/nUmfUTb+yU5m6/oWlBS5VfpxcSC5Uc9EIvKvKsHzcSRtNK1Lk6hY4DYqlNWICvfSHE6AsvmBvez+xqOyGWZjQjGqm810t2LpwhLMcBaEhQsbkyipM9I/vxFY7J4Dnc6fTEMdUJvTm4KIiIiIyNJ9jQQ7V2Pu3LnWtGgF3BsA+qCmhLenEQ3WkGmtqaoW8aQbnozXuhXB4mo0p5JIlJq9jc2IPjJYVvDM+OtE/OUiBaYi1Bn79/dEZk+fHpXQ0GKFi7pLue7RTFYkYddTZAOB2ZOcqksibudPVMBkD21DjdtLnKxYiIRbB+rh8hNkGuV2aT3J0fIfXr5GT3QyjtryBjVk3K54BuYvTKT8dyJ9dtlkmOz0F1cvQLzWbTyIJ+tyG5HRuh6oABJOA0TnR0W05NZKkQOrQaMmW/5al2JhyYzsjR2ZwsfF0VLrNjq11teioWW9M59JzvnjaAIiIiIiOkLd1EgwCZc7txqI6cy9WLZktQ7rbt5ebGdyeorDwoWyGaL26IaVt4hKr1NLasLihjWoibvh6t7jkEpAZKLSkaxYYFQKRcU2mYB3QPN6UYk30udpQYiQvso6J/7SiulOj6ZFbI9Gb0+sqFg2iqVmhaSy0e1NLS4qEdEbue/J8osiMP9SSPmK/DiVSlGpX+AZbt4d+etE+iKMJJDnIIxGnmR8vefYh9qYRENNDdCo45ANFVEbSbqVHPFRi7jRq+/XunQhSjzDBLwyhssyr1iIuC7XeLICiRIdljfFmF7RYg5QICIiIiKKpGduN5j0PozWL7ufHA7sVnCcybknOixckj3ORpjZky7Jh7CZ4XLK5Z7rTmlF/SzjXm8xJf01kB5Nn9Sbyy9MhPL1kY0kHl2av06mL8JIAjkcHuOs11JxUTL3yqgoA7ehYjoq0LlGkpK4kaB8UI0lcsRH0CiVDLcSeGQPL65udst2fhGSKAo8/keSv2LrnoNOlSsRERERHXu6pZFg9ZK5WLTCvcFg64oN2DvkZD3X9zRVBd0DX4Ya//D6NMUoKmmB07kuKyRp9+1nISpUcd8w4qaEfkK8slFUOOJuHa61HrNqWvSMFCV9QcowA7W+/MvRBQFDrn26p/zs+/47P5TdK7x8Z5QsNG5NEJX2WrMrP2r5B6U/KP+dTV++BKRfjjzxpEGm2V9Jzr598fS45x79psRCxKf7q9hHfvzV8zbUbSa6gUCUb8aBDkdyq0EG6vYT436GaPmLorPvdSIiIiI6FnVLI8Gky+fgzL3LnGcSLNt7JmZOdn+isO/xDhdXFQrjpmz/Pdtq8lViy2aUuHGUA42Re5KLUb0gjloj7tp4ApUN5c5zBWTFwB7KLJ8gX5GA2JdbMc+ePlmxKkeDE5fIaU1cP/iuxYmjbL58DoK5vVHJkRXW8gY0lBsPwhPzMh63otWT5ScqxfbtJDqdbvxR8h9evt7yEXkr8T77IEr+wmTPf+fTF6a4eob3+Afds5+FNw3eSnKo4mrMSMad/dfGzdtvwsmfH1Tb6vNSvXZOTnk7iPizpsYtQ+/9Go4jutVA8j1YMi39ncyfiaMJiIiIiChXsR07dqSWL1+OVatW4ZZbbtGLe0ZbW5t+1Xlj5rmNENtmu6MYxowZo18RdQ9ZKU0UNef2cL9u1NvTR53D40tEREREueiZZxIQHdWM0Qpiyvnp/12ut6eP8kk+/4DHl4iIiIiiYiMBUd75Hn7Z62povT19RERERETUU9hIQEREREREREQKGwmIiIiIiIiISGEjAREREREREREpbCQgIiIiIiIiIoWNBERERERERESksJGAiIiIuoH8+dUqNOk5IiIi6p26t5Fg6wosmjsXc+W0aAW26sV0LGtClfy9/qr0y8amqhgyLO42mfYvl8Vi3XOR21X5b62fKPIg8+FOE+tbdahf9uMTqKnKjT9tWx2nMx1BeRrxZ097dtZxzLatrMi46csaf2s9Jup1YhPrxVZRRYw/hJ0Ha5qI9Giscj7y9AdsH1L+Ztpy33/U8gnJX2i4pM9F5xz17tue0k/hoPxHSH/k89efPq2T578SdPzzEX9GxaiuA2rzGicRERHlW/c1EqxegrnL9uLMOXMwR04zJ+M0HXTskReRfbk3JZ/pL8P8VCMq9ZypbH4KR/YT/vlJX6b9y2WNmRKbk2jpO/L8ByuubkYqlUJKZKSyUfwVr5uri3WoX/bjk41qhKiNIyn3IaZkvDa9klXZaKVBTfPFXnIgKzdG/HXJWRkqyAFEBag2nlT5z6SpSsRdZ6dNxh/PXEkUcdTpdVLN1aL6E02k+EM1YTHMMmyG/xA2VdUi3phAiZ73iJD+rNuHlb9dvtnCpYD9Ry2fwPwJYeGWTOd3JRrtdIkpmSjVy7WQ/IemP6fzN0P6Onv+S0HHPx/xBymrQcXCRB/+/iMiIjr6dVMjwWos2TAE0+Zcjkl6Sd/m6ymqqhKTecmje3/syQyTF2CxOGrWNKDcWSdTL2AAFYcbf3BPlqiMygtC8dpNRkD67HXrjX2YvUz5SL9n/xm21WlQ6ch4JRlQ/hHSZ/YiO73qZh5D9y94joFR4feVdVqPdZTyi7B/Ty9yhrRnPX6RBBwfI23+yU6raoTIodKciSd/VfWeRpXWpUlULHDjL6upQHKpkciw90fZ/IBGERnsbZwpm+FvTBDloypR2Rs3gtIfGn9I+q1zthwNDeXGPrwnilynNr4A1eP0Ao/w9AdtH1b+retbUFLklu+4OJDcqGeU4P2Hl39Y/iLk3ylf/+dPMaqbzXS1YunCEsww0hOW/7D0h56/genLdXsxpX2IBJd/5+MPw9EEREREvV33NBJsfRsYLS4U7VsN5i7Bah3UJzUlvD1FaMAaHSSpHqykGy57Up0LqeJqNKeSSJSavVXpvYDBilBnxB/Yk5WMo7a8AaWJpHPhGpg+UYGSPawNNW4vU7JiIRL2dWCn0y8r+Ob+68T+RYVHhyoyDTIsW5d9UPlHSJ+8iJdxr6mJi3TUWevUFcGpx4TtX+yv3OyFk2VsV8TFtmbPo70vR5TyC9m/rICaPbWpuiTiUY9fqJDjY6ctw2RWjKx4rEqELGNvmGBWcH2NGFYFz81fMr4QNeYbLIMWTy00+P2RG6tCVWOmv3U9UAEk7PT7bpfILf0Z4g9JvzUSpBGV5mgMs4CbqlSZZ20ICUl/6PYZmOVfXL0A8Vo77gzHP2z/HhnKJyx9geERPn9MrUuxsGRG1sYUm/f8M2U6vunc7XNMn2buP/DzXcqp/C05xR8FRxMQERH1at3TSPDGXuzcKC4yJulbDaYNwYYlPdVM4FZePJNTUQkLF8pmAOVuWHmLqLQ6V8FNWNywBjVxNzwuawgt693tO229qIQY+/dcQYr9i/Q4F6WiUrrAM1w2WvoqG91epuKiEhGcp9SLi+5kxQKjUlyG+ckEfAN6gwWWf3Sy4cSpXJWVhVYEXKVIJI1eOFnGFUl4Otu6jDXM3FMBEhX3RrHUvOA+4uMXdnwijCSwyB5ZqxLRiHJfmBxC7VYyPI0c4ixcmqzAAiN/VqU4c69nZkHvj1zIHlNRITJ6VZWNSTTU1AD6Vg3VSHRE6c8SfyfT37RYbGA3wsRrRFp9w90D0x9h+zDiHILRiJeMr/ecm2H7d2Uun7D0BYbn+PnTunQhSsxhBDnJdnwDdPrzMcLne+TyzyRf32/FmF7RgsVRd0tERETdqvueSTBkHOL2vQannYbReLuHHlzoVl48kzM8OixcCqrkCKWi0mqGy6mTw69draifZfRiiymZCL7rVlYSPbo0fd0hpPyp60QeSeAqm9+IwNpA2YycnnmQSUncHlee+/sjI9UYIntMs4ySEe8htyFuOipExT6nSlLW+DuffjV6xd5eVDArjVFEjoD0R9rexy1/Wc9NAsYw/+KiZPrhDyu/gPIPS9+RpD+z9FsNsjHzr4SdPz5p2+fIs32Uz/ccz9+c44+g2LrnIHC/RERE1DO6p5Fg0uWYNGQntjqtAm9gL07ssw8ubKpKv0/UVYaa0OHdxSgqaYHTuSsvKCPfN74RokrsXoO31mNWTYuekcowo2Sh0astKh21ZldklPSFiZJ+2Ysme5p8Q1nFBWncN8y0KVHjuV0jTHD5S50p3yjWoGaWGV8TEgvjmG5cJTs99/L+8rSu4M6kTxxf1PryL0cXhA+JjiQvx8c7qqCpqhwtRiVDhpv32bfW1xrhomxQ4zs/5bnkHvPi6XHPPdJNiYWIO4Uf9v4Ip54noO7Z1hU8cXw8bVBy5IbnPSb3WSRSLoWnPzj+zqc/VGD6wwWXfwQh+w8t/87I5fxuzXyrQVj+w9IfuH2E9AXvP8Lne0j5dzr+yPIZFxEREeXVjh07UvPmzUtde+21qZdeeqkLp4dTP7v11tStavp+6r6n0tfZunVr3qbUrXAmz/I8aKxEShSdO5UmUkkdZkmmEqUh6zRWGuGVqUa9OIpkotSzbULNl6YSzg4aU5VOOFKVlZWpUjdQCEifka5KmSj/vC00/XYaMoQlE6lSZ1uItCWsddUOMqRNTkb5hZe/kDV93rKxJrPsgvdv7VvE54nf3F4y9+GuG638wvOfngdj/0a82Y6f9/yxJs/5EXh8ovDlIcN2nmOYFu4vA3/5erf3ntv+/KW/PzLl301DpvPDd+wUcz1/+oLSHx5/WPrTzn8x+ctAMuPJLf2WoO2Dyj8tj5nen1n3H14+tuD8BYRHPL/l9pnilbLnP1r6A8svQvqCyz/DZ0jaMQg+/p2PPyqRjiPeloiIiLpKTDYSLF++HKtWrcItt9wivu97Tltbm37VeWPmueMUts12b2wYM2aMfnXskA9SSxQ1H+GQWyIioq7B7yciIqLep/ueSUDdyPvwxbSnixMREfUC8sGe/H4iIiLqXdhIcFTyPXyRV2BEREREREQUARsJiIiIiIiIiEhhIwERERERERERKWwkICIiIiIiIiKFjQREREREREREpLCRgIiIiIiIiIgUNhIQEeWN/PnRKjTpOSIiIiKivqYbGgm2YsWiuZg71zstWa2DqZOaUBWLIVaVv2pJU5WIL9ZVFR1ZiZLxe6eckt9UFbxdWLhg5VFPVVWoymP50bGsGNV1QG19q54nIiIiIupbumkkwWhMmjMHc/Q0bdwQvfxYlc/exjLMTzWiUs/lQ9n8FBrzGaGHqEQ1J5EorURjKoWUmpKI1+ZQHmXzre2yJTIkvLV+ImrjSb3vFJLxFjTosN6hr/dGd3X6e3n5lNWgYmGiDx8/IiIiIjqWdUMjwWmYPPNyTNJzcmTB1p1D8D53QR/k7Q2fWFUlJrNKoHv3nZ5qI6y1HhNjcdSsaUC5s85E5NbxaMafeVtPT/nEepFiL29Pen3WSpesULvr2WsE5E+w454oEuZsnyENrmJMrwDWyxX0KAA7SjOurlJc3YzU/DI9JwXnTwoqv/D8d/X50YXpk1Qa3XDPsYmU/oD4jVEg/kmtFiH+wPxFOr/Cj38wjiYgIiIior6r+59JsHUrdg55n9Fo0Ac1JZCss3vBU6hDA9boIKmpqhbxpBuejNe6FY3iajSn/D3pzagutoLDyQYKM/46EX+5pydcVnzMnvJUXRJxo6IjK07envSFotKlAzMpFfmV6+qKdGD+BDkSQfbir6mJi/XqdBqKsFGHp2vF0oVAkSyDsvlIJkqtxYIdVz7JRoG6ZDxrJTAsf2HlF5b/rj0/ujh9SpEoPze8LjnLraRHSH9g/PYokAyTOv0ixB+YvwjnV3j+I+BoAiIiIiLqo7q9kWDr1p0Y0qPDCLyjAJzJ6UkNCxfKZgDlblh5i6hEOz3RTVjcsAY1cTc8LmtoLevd7TujdSmSFQuMSlEZ5icTcKs9Yv9oRLO31iSWLNYVFlEhT1ZggRGuetJT80VMphbUinJQlazmarhrR89faUJUVO1yKSvzxW/2BMeRrPPvv2upymHGSmBY/qKWX7b8d/H50S3pW49aI7w8p3s1QuIPG0mQg+DzL5t8HR85OqYFi9lKQERERER9TDc3EvSGWw3kPfFuBdGZnIpwWLgknwNghPl66p2ed3PybN8XrEFJRQKlDXbjgiEv+TN7gnUvcQ8prq5DpVkJ7Orj19vPj8D0taJ+VhJ1RlgyUaJCIguKP2wkQXfI0/GR5xVqzds4iIiIiIh6v+5tJDgabjUQmqqC7hEvQ03FQiQCexCLUVTSYt2DL8neU8894QGKpyPuG8bclKgxbncowwzUpt0DvlgstepYYt+o8aVP3oPtz1MlZlRXo7kRKPekLUr+Oq/FLhx5D3puXdUh5EgRX15b1wMV03UlMCx/Ucsvm3ydH/Z98/5nSXR1+jYiiTjG6Tl5fGbVtOgZW1D683H+RCmfYNnPr3ye3/mMi4iIiIiom+zYsSM1b9681LXXXpt66aWXunR66r7vp372cOYwOW3dujVvU+pWOJNneR40ViIlis6dShOppA6zJFOJ0pB1GiuN8MpUo14cSTKRKjXiLk0kUpXydaUdS6M170ylqYRn5/70ecOt/FlpMvPqRB+YP/++5WTGH7xvixmHSIcuK2v/GfYtJ2f/EcIrSz3ll17+QfmTgvIQln8pLH4h9Pyw95MprGvTl0yUGmGVqYSa98URmP4I+Q+TNf4o+Qs6v6Q8pM8h9nXE2xIRERERdb+YbCRYvnw5Vq1ahVtuuUVcD/ectrY2/arzxsw7Tb8Cts3eql+J5WPG6FdERF1PPkgyUdTco7fUEBEREeWf7EvRf1N234rNfH00ielJ/rFf6/mjCBsJiIiIiIiIKIBuBEh1iL9ikn879lt/218Tf9uQat+n15Or6LCjTeHxQMEQxAqHiJp0gZjEvHyNQis8UEz8r9dTDQzd/0ODUbGRgIiIiIiIqNPs3nNZmbZf+2VbHqYneqvttMqGgL3iz16kDu8CDu+0plT+6m59XsHx4hCFVPr7jUCs/yig8ERr3cIR4m9/MdkNB1EaGroHGwmIiIiIiIhyIivQsjFA9paLyexZT4m/slItl/t4ettzISqhsbBKaJ45aW17jY0CXUE2LPQf5TYc9BN/Y/2QEsc5JkcZ9GCjARsJiIiIiIiIIpEVfFH5b3uLPeuUX/ZohAGnIjbgfUC/94r5nhlp0L3NUUREREREfZbuPbYriql23yQqiZyO4ukg0PYmUvvWILXnYTH9Adj3PHDoJSucqDPkSBQ5AuXddUi9tQypNxcj9c7jYn6tOMe2ibB9Yp1D4lyTnzXyM6jrcCQBERHRUcu+iBB/A588bb4mIltKvG+sO8H1e8R8GFuGIeVHPJSc+oZD20WFZY94kX4bAVGXM29PGHiGqMkP0KMLjAci5gkbCYiIiPocWQkRk/PkaOuvVaExKii++2NT7e+IhVkqO7zoJUrXrt8b9l8iot5ANhjIX1XoNxKxAaN9tybI5xl07kGXbCQgIiLy9Pzp185QPjPMlmlZV0u5jQCygm/fCyuHuMqHSkH8lRWZLA/LIiIioqNUxlEG2Z4sIK4jnE4GH9nIEOvXfY0Eq5fMxeqd1ush46Zh5mS3Em9jI8GRaEJVrBwNlY1IzS/TyzqnqSqG8oZKNKbmIz8xmlpRPzGOmjV6VqtsTCFy8puqECtvUC8zbhcWLlh51DOVlajEDMzPU/n1eRHKr+sFVcCitIzq94WeU0oTSNYlERd5i54v7/vLOW/s95tTVqVIJJtRvdEtO0ce35tRtNZPRNz3BitNJNFcXazntNZ6TIzXQK0py6a5GnKNwO2dbfz51fO+XQRp+tcYHryyA78u08c661B4Y9m6H+DD534HSUzA955fhW9snoPjP7NQBPjnDRW/xf65l+sZbYm1nmxkn/C95/HM18+2Kt3+XnXdc+gMH972W3z5S3OxGWNx3S/+C+Wv/AhX1T8hwk7D5//rq8APv4H7tl2E6gduwHliqfLcT6x1Pl6NB77iLAV2NOGb37gP2+TrMZ/Hf32/DB8wl0n2cj3rDG0OaQTYvfLnuHuZ9YU7atp1+PL5I9RrrH8IdYtaUDKzFlcUWYtytxsrf3Y3lr1qzXnil/Q+pLT9hO1/10r87J5l0FHLyHHdl8+HHfv6h+qgoi6ZiVoZgbOv0Zh27TU48+9Wvu00meXgbJOT9XiobhFa9LZh+z//TTfvjlz3a5SfzcoPjHIvwczaK3By2nE21/FKO06RePOfdnwUKy0qhxnSruRSBlnz76bdOQ6SiHsm1gFX6DQIWc9/k8zLg8AM4/yKJtv5r8tKLbXLJNOyACHnf6iM5R9hv6YI5R/MzLPk3b917ALSFLD/6O8/O373WGU6h9aNz/w55D+/Mp27GbcPLX/vuWMzPw89n1latPLPw/kndab8R6rVBf85IEQ5l534Mh2/mZiwdpEuOys8/fPPit1OZ8ZyM/KX6Xsocvkf8edHsND9h6RfsuPYu78DJ1z2Xfy/T54plmZoKJDXE3Yng99xccQGf6ibGglWL8Git+NOw8DqJYvwdnwm/O0Ex04jgawoJ1DUnK9KuKjIVCGvldwmK8IuaCSQ/Pk/wvIQFbQqzM9e2csSLitBs7DAqTSpSlGyrlsrcsHyfX4cobDy7UryicE4rOplaQoHi3/kMCr5oWc3GGRvOFj3/S/gD//8K3xzvD1/Lu468wX86tPWfLiH8YUvAL/SGzz8hf6oK16DF3SED3/hXGy46QUnfrEAX8CvnPjl+g9dcTiH/eWJLx0eIqz/DGDx4V8ha7KybJ9WfmK9czfc5JRH+kGT89Yyz1B4cxi8rpBnHArvGwa/89Fb8diob6IirhckF+L7u6bim1NHO/MLUeGEJxd+Q1Ry/stdf+dj+P59wOe/ORWjxT7XP3QPXjvfvMAJJr+Anxp+jfvlLL60f/baBfpLXFwc/WwFMOFKXOFcsPwcj786ElO+bFygqS96ZL1o273yIWz44BWR0+Thu3jxX8ympT9H/vgyXixLIo8P4Yq05VH2H5R/ub/HR5oXhD/3HD/rAtG8IBbH5CFZhwzYYSDv9mH7Fws8+c5aPtl4zidv/P59W+QF+QqMdC7S5YX1UxjuO9/MOHPjKz9xfj309zOd8zvtYtl/3GX4yuH4srMgQ/pMAfm35r1lYF0Qj3SPd8j531n++DzzIu11j4/0VYZkfkWCrjTOkRCdev/7y1+mad34nBppgso/XPj7bb21Ql6Of6b3n+dc95+vIWT8i+A2DKjza9fknMove/mnn/tZPw/98UQh99XZ889XfjmXv0/O57Jv/+bx8+/b4vv8s7cf/pQ3Hr+w8g0L72pHmr58ff7pRoJsYxDyauvbezHkRLfSfvIQYO8beqZPkpW4GGIxa5ooKtQTq5p0mCR7H93wmBkme+Jisie9AeXOOhNR36rDIzHjz7yt7PF09j+xXqTYyxNeVS/yUyViTScr0O569hoB+RPsuCeKhDnbZ0iDqxjTK8TJLFeQPbNifTtKM66uUlzd7GsgCM6fFFR+4fnvuvPDPF6qzHR5evaj9mHHnWPZRjo+Afkz0+Ob3NWacOcFH8C3ro3j1hsn4NZf3o7Um7/T0+24/+rT8KXPfgRNrY8jte9ZbP3Vh/Cxc4biI9/6OXDgb2nToKH7MQrmPDDm1Zvx+dIT8RE5/cvN2GysjwM/x612WOm5aFj3CsaMesUJ//Q9jbjxmY/i1kf/hs2/OBe//af/wDfHGtsP2o8xg9z5T990k9jfUjdcTH/+lh1/pv37wr91Mxr+5bP4swqz0ybTZa0r02Ct58u/Lx3uJOKY/16sf6can04LM6Ys26vyM5eL9c4eusWZT+1bjN9UnoxLzremr3/vX/Dd79+J1Ft/AORTep8qx61fOR23fq0YDz4jjumeP4jpEaTe+TOw/6/iC+On+FnNFaj79izU3VyJnz2+Bji005kK+8dwXIHuTZdTQTuG9HvXM2+Gx6dchuPeEOnT87s3/AMfm/VhjJbz6EDR+XHs+vtu69TT5BdrXZ2eHlopLrIeEpciEY2ajPG7nrLWF1/Y60ZOxgQVYBMXNfJCLksDQTB5QSTT9XOs3GUtkReZVjp1Ct/chVFT3IvEoitmAut8qX9NXEjY+fvZSnEZ6RWU/6IrvBccReNL9KschOw/SNEV12HC2rshsyvz/vjIK30XoKMxbeZIrFuZHqtTVmL6mQwXF1puPu0c2mUsJ7ecbeH79yo6f5rIb8D55c9/0RXuha1Inxn/ySNH49Vd8uJJXvjrPCgjMTxDGmT6VLZ8cTr7ticn71Jw/tOMPB8zJiTxlBmFIuKR8Ypwp4FAXsDWyZ7BFizKto+A/Ms414kKnHnhP0JUUGrN91Lg+W+Vm5l3tww1lcbs4YHnf9EFmIYkNpj5Wf8UliGOM1UeIrx/g+hj99DK3N4/o0aerF/JKNx8Ofs24wgp/06l38fZ1tw+cP8yOOT9J7afsutBnT6R3nt2YbxxvthlKKe0JItj/7jRQCDJ82smVrjnaND2WbjlPwLnexrHdmPD2pEYb5xPgcKOf+j5J+dD3v+dLf8gdvr17sxz0RFw/CJ9/pnpz7sInx9C4Oe7Jw7xveork04L/f439y/fx/o9bSRApn/69OkYPHhw9zQSnDb5oxiyYS7mzrWmZXvPxOWTdGBf1CSHLVv3hsqpDg3WkF2tqaoW8aQbnozXuhWl4mo0p5JIlMrh/PY6uQzTlQ0UZvx1In7vsGpZcauNJ3W4mOQQa6OiJiuSZngyvjBt+L+HHIos19UV6cD8CWXzxfLGSqypiVs99HK9uiJs1OHpWrF0oTiZZRmUzUcyUWotFuy48kk2CtQl424F1azECmH5Cyu/sPx35fkh8yaLSw6nVyMlRHmq8pPH0GkIKRL5d/dfl5wVvZEqwvEJzJ9Mj17un+zkye1Pn7sMd955p7j4q8V1I1cYH2BFOOejBZhUMQOfHrlZVCpbMObyGbjryg/iB5UFoqL5VNo0ZMQ7OD1lzseANc34zrIf4Bkx/f7zj6L5eTv8ITx11y8wbaEV9syyKRh8923A2L8726feeRmfv+ffUPLwJZifmoKG8peNMDEd/w5KjrfnRXyLH8W0f3LXeXH+JWj96Ld0/GK6sRnz59/rhO96pNIT/vuPPopNo9/BSBVegJnXn4jZdTPw+RHW+qeXz8AP/uXM9Px70mFMm55GyedfRvM3L8Gtavp3vOhfR05ZtlflJ/JubSumh1fi/BFrnHD89Zfof009Hm20pmtGPovCE/dYlfz2t4GzytVxrZ2ZrXI5HFOuFeFyHTG5FwyulkX2l5yY9NC7zMQX4oNJjPxg8EWDdeFhsS58rnP2f93IZNrw0LD9F423vpfXr5T7di/QlV2vybsj8JS9vbxQ0EHhiiDrJKOmuRdmI86/EtNGiYrx+fpK86SRePVx98Jk98oVaHn1Nc+FSsuyXZhi589XwYuSf5e4wHh8JC6IepGrBe0/nLzQFhc+4hjIHr6MF4QnnY/xGc4bdcEvyk8O01TbiQtKdR7KobCqYiAvoGSvlJW22trJ2HWPb9hslP070s8/eQFmlm/tlF24O9MVoqysirKdYcQ/wrkSfgO7MBpYuwG7xfn06qiR8J5lViXcP2zVJvNv7X8mSuTQXadSFCX/6dx0Waz3R4btZINB7XXifJUjPex9ZOmFzJB/9d4xKrwZBZ7/8tjZ+xVTxs+g8M8fl//8H4EzxXt72Ur3eK5f14IS56I9wvs3iD5fw94/ns8nXxnKRg4Zx6vL7rZ6yGU8U4aLM8onU/lHTX/LInf/YY0Y8r0n02C2vEgZ9y+Fv/+KrpDn7UN46CF5LvsaY2UZyv1lOvaigpXp/CoaPxK73rRnArbXgsrfY9cGrB013pu+IKHHP+z8s2R//xs6Uf7WyE452rMfUh0xtGMAYgUDgbNn4stTR+FQapAIHoSiGeIa77MTcaBjgJq3p6IZl+Cl/27Cbx54HCdf9zkU6eUj3jMa+9v6i9fv4KVDo3Dghc14dfcebDvpfRhmbK+mVEFavJ5JhNvpyDiJ8MMpkWaZbnuKvQ/nX3sbam/9D2sSx6JD5VPev29NLz5Yh+Ujb7DCZRn7Pt/XP3Q3dk3R5X/tSDwurh/k7QSZDsERCfn+9+zf/nw3bqmxv/+XLl2Kffv2dU8jAbZuBc6cgzlzrGnakLexWgd1P+8oAGdyenrDwoWyGUC5G1beYlbAmrC4YQ1q4m64ur+3Zb27fWe0LkWyYoFRaSzD/GQCbrVN7B+N3vuPRcWsUSy1qmmiQp6swAIjXPWkpz1/oAW1ohxUJVffq2yJnj95H7PTQ19W5ovf7CmPI1nXvUPrVeVWV069jQBh+Ytaftny38Xnh1A2oxINtcb5XNuAyjrzGK5HrbF//y30nROSv9CRBNb2v5gzDd/+9rfVl6y60DU+5FTP3DLdUyvJlvJRk/VFi7zIDa90lcx0LxzkBe6rdk+f+NLeNcFsGS/CFddOwyg951AX5qMxylf5srkXCfID2bwITu8Jk1/88p5aK827sWFX3PPF7O8pC85/BOJCqGXZMjnW3f2iyrEZ273IEJP/YknWkI2LpEWv2hWwqF7D4/cY22eooQTuX8he/mHCy18K27/s0Rm5TnzZIsNx6WT5hx5/3bN7ty6/u0V+pvlO4Kznf8T8W2QPhLgIv9J7ARpF9v1HFPL+k+QIkbXGxbJN9vy2OBdR4vPiceMiusff/zbZuCAqAp5hw5rc5/p1eHWCHKGyC2+I8ym9DceqhF83Td+CYxL7s96O+vhdaxzbqPkPYb0/ZAXkSAXk36F7wPTk9OhFOP+DhX/+WDKf/yPOn4ySFn08RUXr8ZYST09xpz+/hbD3j+fzSVZSMjREyoqJUzEvKnLPASV7+YenX5wz9r7t/ad9vu3C4z+zKpm1GY9xyPEPff+LNIh67Ku59HLnUZTyl3b/PYlRkYcRuIKOf9j5F/j+d+Ra/rJRQFaS38QTP2pCS7+TEDtOxDp4Et7ZfSJejH0CGPZJxE6agTe3AX/cI64Dh8+2pjdH4NebLnfn1VSPmZ8egf/ctwCTi43lYt27fjEc61buxH+eWIfDS9qxamM7vrHkbLzu2d5aNz1eYxLhf3gzw3J7EuHL3/qsSPNV1jRsOmInThF5+jBwnLiaHnQ2cGggduwfjdjAU/Ukzus9N+D6iz+k5tWvDpw9E1e1v4i/qV8c2IB1uy5xGxXlZ1Wmz+jOCPz8E98/4nrMbdT0f76nf/93z+0GW/fCbOY+7cS9eLnHWgmKUd3s7cFUk1MRDguXRMXcDPP11Ds97+bk2b4vWIOSigRKG+zGBUNe8mf2lPfUw/EsxdV1qDQr6V19/Lo6/rIaJCAmeeBal2KhnHPKtxX1s5KoM/adTBz5pVxGQfmLMJJAbj9XVKLskQRqMr+sxIfglJIWPK4uCsWXmbzIP4Iv2iMnvlzvkV+g11gfxhkqeM5FgvgANlt18yIf+R9lfFGMPFNUNrJXtnIX5SIxG31xYmx/3bTcr/JyLX9zOG5+jMD54+OYkK13MMfy373yIbc3M8Lxtyr2ugyuGC4uyYdnvtg7UmqIpLzAzKUB5sh58h/h/afIi6WRK9KHcaohucus3jdRKV4r5tyLpii6/v1v9fZkuHg/aaS4MN+FDa/twqjhRarX8DX5oxajMh9feR5kbp+zKwj5OX67RXrSic+BnBoHXVnzL7ijfuzPGWtkwpS0hq0jOf8jfv4Env+yt916f8pKIKZd4M3HEXx+e8//HIlK4XWiXp/xEGURVP45p79ofIbGop0YNUFUTuzKrE/g/qO+/4+EeH/BGFVmW79uF0aepGdyJcr/2mkx7N5l9axbk6wwvom//XU0zjp7oOpltyen19royTbDY2J5m1huzh/u6G+sU4Kzitfg0Sf3YNf6JA5PnYKznDB72oQHblmB91z3VVww2h82EH/73U/x8uSZGbaTk9j2h6/hIrHtFcVr8f0HNgP9ROEMLhUV6Y/i+T8Ox9aTPwOccBFix0/CwbcH4S28T6wjKsOFJ6KjTWRNpPmIjIujdE0SS9eLc66ozLpNWR7+kqIuqV8d6NA/L6h/YhADx4o8lSA25J8QO+ECxPYOwyP/+Chw4mV6iuOZdXFnPvaezyN28mex8+8n4tUTLwKOOwX79/ZHhyhH61cHClUjT77l8/u/e0YSHGWaqoLuES9DTYWolqXVrE3FKBIfsuoefEn2rgbes28ono74woSn4t6U0E8oV8owA7W+9DVhsVhq1cHEvu0KpEPeQ+7PUyVmVFejuREo96QtSv46r8UuHHn/fF67uuVIEV9eW8WnTMV0/SETlr+o5ZdNvs4P+77/TM+SKEZ1nTWaoF6cG27epI1IIo5xek6W76yasMGk6bIfn86eH9b2i/6iZ7NwejNkL4bnIn8Eho9qcW/B2rUSi5ch4/26GYkK28i1Ri+JsH6l92ne640hjPLDeCYWZbwvTREXVF/2VJLFBaR5f6MiexftIYci/XYFxiEv6L337WbPfwSy53KUed+iHLqcv0qkfJDREV/QqrQYQ6fV8TviyDKUvyjhD470PIPAuiXAzn208o+k6PzMFbA8lH8ux1+dr1GGMivh+Vf3Wz4un6mgK0iiwpTP6/Qwubz/ZK8aHl/h62kfgfOnWKMJVor3Niac6ZZ9j7//ZYXQGu7p1q9F+dvbjxyuen127bLuY5bn8tplLTk2csnjaVZwzfjD859uPZ5aGw84B0VF0jO6S35G73IrrbLCbQxJD86/qKCmlV+w3M7/8M+fKOe/en+ufVB990zIcKtTpz6/cybve4/+HRhY/lpQ+mX5mO8HOdz51bTzswTjzxfvDTlq3Xc7Qtj+c3r/5UqdX4s892fL9CzKNCIsSMruWZfD3d/Cmr8UYsAYkeLBk8T0IVGBvhCxXQdw5xufw/hhn1S97PYke9tVz/Vb78Fjb1k92GY49g7FX/Z65//w8j951hk/+Rr84Z5F+NevpND/7NmeMAwrxI0lf8LrX/8jLirS87eKtOrwDff/EN9o/y0+80/G+kb4o7fKbX+l0j26/M+44Nm7cM7cYsRkD3v/Kfhg8X1YbF//qetLcb74avBHfH1fXKQanJLJEswQFZri6XEsrGlAady5ou1hGepfBX/Cr1+vwJSB4xAb8g2c8MoLWPTqZxEbOhU47kQ8vOBZ7Gsf5DQaiIt6vWF+eD//xPeP+Ow1m8G8n+/p3//d9BOIq7Fk7mo4d8cNGYdpMyfD9+MGfebXDeQ9/57zWvacenqCZUXU9zN//nVkxc+JJMefG5RvLPuny4TSRAIlNTXGzyDKCqT5nAL/z5P50+cNt/JnpUlE5OTV/dm4oPz59y2Z8Qfv22LGIdIhGypEIqz9Z9i35Ow/QnjVLCxsWGM0rPjLPyh/UlAewvIvhcUvhJ4f9n6ynTv2PtLD5TMV1C0ASiUSiRaI00enMUPaJE/6go6PXBYhf4FasWjWx9B8/PEYNEB/YGb4+Rx5MbKoxeq183ZYyYtS+2eGfD/NIy9I5UZpP5lkxCMuDM2foRo1bRpGLVum7tuSFyTW6nI4r7hQMdZVP1Mz/Cn3HnXnPi+dnlH2vLxIN+/X9aXRk37JH27Jln95URP+Ez5mGrzxB24fofzsdDk8x86fN81Yx7v/EkybtgtydL53f1n2D3c+e/l705heNgHlH5h/ecVrl2n6+eEthyzl7zv3XMY6WtbzP+38NfIX5fwPPP/8564l+7aanfew/Z8UnP/hK+3jlvn9NwMPOueO55xNe7q7nU4dj16qpJVf977/094/khOX3tY5l6x5kZgIx86S6f3txi8E5L/2/NcyHB9jH87x9fOVs2c9b1hw/qX0c9DzHgg6//1EOvxPQA/8/BkZdv7b9HEQFWj3Pe+V8f3rS7sry/vF+Lzzz5vcfWRKfy7nnyvr54/gicO3rRVmHXORGGc9O56g/bthWd5/6jj682jmL+TzSc9mT3/27a/98gUY+eJD+M6CZrz5djte3HIA214+hB2vHMbM33WkjZaV12GJouaMy93rM4vzE8TGdaG63oJv3olLX4Mh/borU/xiY+OZYxluQfX/BLR93WnURdyfWTav/3K9vveHSxmur53rSWteJMbJe3D+wq9vA8vfTxyPietrfGFB6Ze84ZWVldg48Wv4yw3vQerQTuz8w5fxP4++goJYDIWFEFMMo51zO8L5G/b5l+nzfddwY9SXtY87lu3HE8/t7a5GgmiOnZ9AJKIgqb3PAgdagY6Dekk6dTG3Np71Iuxod6zn/1jXPcc/v70aRL2KqNSpnxE7S8/nRLw3PL1+mV5bz9uR/D8M++oTP8R/N0/E1792Uc7PfOgN+nr680sc4wI9NL3fSMSOnyAWDdRhdNRq6vzPhGdsLJI//9y2SzUa4OAm8eFxSEzyZ6Db9d98Wo+MP1mqfwKRjQRE1OsENRJ4e3rSe8qOdsd6/o91uR9/t8KSuVIj/1qVGasiY6wjL3xjvCuRjhYv49Hv/QcefEnPnnIlar9zKd6rZ3Mi3hsxOTxYSMWOsyqI9h28Kky8Nt8/MfFahP/thxfgY7VJaxniqHv6KXztbD3bB/T19HeJQuvY0tHONxIhpxGyNl8cxiiOjGSDQaoDqUPbgcMvi+kVseywCGiXgSLM3/wYXdCIHzYSEFGvFWUkARFJRmXfqdCLv6pBQEx2RUX+LTAqMvaFrazQyAqOXEdWZMzKDhEREfUOnlEGm8XFsrhGzusoA309cXxcXA6cy0YCIup92EhAweyKsU1WkP3LMpGt7lHWs5nr2q+zDSHOJd48MhsB5BOYY/0Q6z9czJ/ICj8REdHRqmM/UgdFHVeNMtgpLkrkKIOoMlyz6OuJ2OBzgf4fYCMBEfU+qX3PA/vlI2LtVlI6OrkVb7eSb/41h8FLOsyuGNtkb7ge+mtSw4DNSnJqv4ghfHies505jFTtQ7w2962HECscckpEREQ9Rd+eEEmEa5ajtpEgGzYSEPUBba8hdWCT+MB7Czi8S3zopbeO2lVJ6v2y9rjbFW751x4Kn20YvBlGRERERF2GjQRE1Pv5W0dTYl4+tIX6Bva4ExEREfUZbCQgIiIiIiIiIoXdOURERERERESksJGAiIiIiIiIiBQ2EhARERERERGRwkYCIiIiIiIiIlLYSEBEREREREREChsJiIiIiIiIiEhhIwERERERERERKWwkICIiIiIiIiKFjQREREREREREpLCRgIiIiIiIiIgUNhIQERERERERkcJGAiIiIiIiIiJS2EhARERERERERAobCYiIiIiIiIhIYSMBERERERERESlsJCAiIiIiIiIihY0ERERERERERKSwkYCIiIiIiIiIFDYSEBEREREREZHCRgIiIiIiIiIiUthIQEREREREREQKGwmIiIiIiIiISGEjAREREREREREpbCQgIiIiIiIiIoWNBERERERERESksJGAiIiIiIiIiBQ2EhARERERERGRwkYCIiIiIiIiIlLYSEBEREREREREChsJiIiIiIiIiEhhIwERERERERERKWwkICIiIiIiIiKFjQREREREREREpLCRgIiIiIiIiIgUNhIQERERERERkcJGAiIiIiIiIiJS2EhARERERERERAobCYiIiIiIiIhIYSMBERERERERESlsJCAiIiIiIiIihY0ERERERERERKSwkYCIiIiIiIiIFDYSEBEREREREZHCRgIiIiIiIiIiUthIQEREREREREQKGwmIiIiIiIiISGEjAREREREREREpbCQgIiIiIiIiIoWNBERERERERESksJGAiIiIiIiIiBQ2EhARERERERGRwkYCIiIiIiIiIlLYSEBEREREREREChsJiIiIiIiIiEhhIwERERERERERKWwkICIiIiIiIiKFjQREREREREREpLCRgIiIiIiIiIgUNhIQERERERERkcJGAiIiIiIiIiJS2EhARERERERERAobCYiIiIiIiIhIYSMBERERERERESlsJCAiIiIiIiIihY0ERERERERERKSwkYCIiIiIiIiIFDYSEBEREREREZHCRgIiIiIiIiIiUthIQEREREREREQKGwmIiIiIiIiISGEjAREREREREREpbCQgIiIiIiIiIoWNBERERERERESksJGAiIiIiIiIiBQ2EhARERERERGRwkYCIiIiIiIiIlLYSEBEREREREREChsJiIiIiIiIiEhhIwERERERERERKWwkICIiIiIiIiKFjQREREREREREpLCRgIiIiIiIiIgUNhIQERERERERkcJGAiIiIiIiIiJS2EhARERERERERAobCYiIiIiIiIhIYSMBERERERERESlsJCAiIiIiIiIihY0ERERERERERKSwkYCIiIiIiIiIFDYSEBEREREREZHCRgIiIiIiIiIiUthIQEREREREREQKGwmIiIiIiIiISGEjAREREREREREpbCQgIiIiIiIiIoWNBERERERERESksJGAiIiIiIiIiBQ2EhARERERERGRwkYCIiIiIiIiIlLYSEBEREREREREChsJiIiIiIiIiEhhIwERERERERERKWwkICIiIiIiIiKFjQREREREREREpLCRgIiIiIiIiIgUNhIQERERERERkcJGAiIiIiIiIiJS2EhARERERERERAobCYiIiIiIiIhIYSMBERERERERESlsJCAiIiIiIiIihY0ERERERERERCQA/x/aCm4nt/K+kQAAAABJRU5ErkJggg==;clipPath=inset(0% 15.67% 0% 0.33%);" vertex="1" parent="1">
          <mxGeometry x="660" y="540" width="793" height="258.04" as="geometry" />
        </mxCell>
        <mxCell id="3mhKy8wK3tJmvJU5zgWn-19" style="edgeStyle=orthogonalEdgeStyle;shape=connector;curved=1;rounded=0;orthogonalLoop=1;jettySize=auto;html=1;exitX=0.5;exitY=1;exitDx=0;exitDy=0;entryX=0.433;entryY=0.012;entryDx=0;entryDy=0;entryPerimeter=0;strokeColor=default;align=center;verticalAlign=middle;fontFamily=Helvetica;fontSize=11;fontColor=default;labelBackgroundColor=default;endArrow=classic;dashed=1;dashPattern=1 2;" edge="1" parent="1" source="3mhKy8wK3tJmvJU5zgWn-11" target="3mhKy8wK3tJmvJU5zgWn-18">
          <mxGeometry relative="1" as="geometry" />
        </mxCell>
        <mxCell id="3mhKy8wK3tJmvJU5zgWn-24" style="edgeStyle=orthogonalEdgeStyle;shape=connector;curved=1;rounded=0;sketch=1;jiggle=2;curveFitting=1;orthogonalLoop=1;jettySize=auto;html=1;entryX=0.5;entryY=1;entryDx=0;entryDy=0;strokeColor=default;align=center;verticalAlign=middle;fontFamily=Helvetica;fontSize=11;fontColor=default;labelBackgroundColor=default;endArrow=classic;exitX=1;exitY=0.5;exitDx=0;exitDy=0;exitPerimeter=0;" edge="1" parent="1" source="3mhKy8wK3tJmvJU5zgWn-20" target="3mhKy8wK3tJmvJU5zgWn-6">
          <mxGeometry relative="1" as="geometry" />
        </mxCell>
        <mxCell id="3mhKy8wK3tJmvJU5zgWn-20" value=".docker/config.json" style="whiteSpace=wrap;html=1;shape=mxgraph.basic.document;fontFamily=Gloria Hallelujah;fontSize=13;fontColor=default;labelBackgroundColor=default;sketch=1;curveFitting=1;jiggle=2;fontSource=https%3A%2F%2Ffonts.googleapis.com%2Fcss%3Ffamily%3DGloria%2BHallelujah;" vertex="1" parent="1">
          <mxGeometry x="305" y="530" width="130" height="80" as="geometry" />
        </mxCell>
        <mxCell id="3mhKy8wK3tJmvJU5zgWn-25" style="edgeStyle=orthogonalEdgeStyle;shape=connector;curved=1;rounded=0;sketch=1;jiggle=2;curveFitting=1;orthogonalLoop=1;jettySize=auto;html=1;strokeColor=default;align=center;verticalAlign=middle;fontFamily=Helvetica;fontSize=11;fontColor=default;labelBackgroundColor=default;endArrow=classic;" edge="1" parent="1" source="3mhKy8wK3tJmvJU5zgWn-22" target="3mhKy8wK3tJmvJU5zgWn-3">
          <mxGeometry relative="1" as="geometry" />
        </mxCell>
        <mxCell id="3mhKy8wK3tJmvJU5zgWn-22" value="Cortex&lt;div&gt;Console&lt;/div&gt;" style="rounded=1;whiteSpace=wrap;html=1;sketch=1;jiggle=2;curveFitting=1;strokeColor=default;align=center;verticalAlign=middle;fontFamily=Gloria Hallelujah;fontSize=16;fontColor=default;labelBackgroundColor=default;fillColor=default;fontSource=https%3A%2F%2Ffonts.googleapis.com%2Fcss%3Ffamily%3DGloria%2BHallelujah;" vertex="1" parent="1">
          <mxGeometry x="210" y="180" width="120" height="60" as="geometry" />
        </mxCell>
        <mxCell id="3mhKy8wK3tJmvJU5zgWn-23" value="Base 64 -d" style="edgeStyle=orthogonalEdgeStyle;shape=connector;curved=1;rounded=0;sketch=1;jiggle=2;curveFitting=1;orthogonalLoop=1;jettySize=auto;html=1;exitX=0.5;exitY=1;exitDx=0;exitDy=0;entryX=0;entryY=0.5;entryDx=0;entryDy=0;entryPerimeter=0;strokeColor=default;align=center;verticalAlign=middle;fontFamily=Gloria Hallelujah;fontSize=13;fontColor=default;labelBackgroundColor=default;endArrow=classic;fontSource=https%3A%2F%2Ffonts.googleapis.com%2Fcss%3Ffamily%3DGloria%2BHallelujah;" edge="1" parent="1" source="3mhKy8wK3tJmvJU5zgWn-5" target="3mhKy8wK3tJmvJU5zgWn-20">
          <mxGeometry relative="1" as="geometry" />
        </mxCell>
        <mxCell id="3mhKy8wK3tJmvJU5zgWn-27" value="" style="image;points=[];aspect=fixed;html=1;align=center;shadow=0;dashed=0;image=img/lib/allied_telesis/computer_and_terminals/Laptop.svg;sketch=1;jiggle=2;curveFitting=1;strokeColor=default;verticalAlign=middle;fontFamily=Helvetica;fontSize=11;fontColor=default;labelBackgroundColor=default;fillColor=default;" vertex="1" parent="1">
          <mxGeometry x="480" y="590" width="61.72" height="62.6" as="geometry" />
        </mxCell>
        <mxCell id="3mhKy8wK3tJmvJU5zgWn-28" value="" style="image;sketch=0;aspect=fixed;html=1;points=[];align=center;fontSize=12;image=img/lib/mscae/Kubernetes.svg;jiggle=2;curveFitting=1;strokeColor=default;verticalAlign=middle;fontFamily=Helvetica;fontColor=default;labelBackgroundColor=default;fillColor=default;" vertex="1" parent="1">
          <mxGeometry x="1160" y="310" width="50" height="48" as="geometry" />
        </mxCell>
        <mxCell id="3mhKy8wK3tJmvJU5zgWn-29" value="Local&lt;div style=&quot;font-size: 14px;&quot;&gt;Repo&lt;/div&gt;" style="shape=cylinder3;whiteSpace=wrap;html=1;boundedLbl=1;backgroundOutline=1;size=15;sketch=1;jiggle=2;curveFitting=1;strokeColor=default;align=center;verticalAlign=middle;fontFamily=Gloria Hallelujah;fontSize=14;fontColor=default;labelBackgroundColor=default;fillColor=default;fontSource=https%3A%2F%2Ffonts.googleapis.com%2Fcss%3Ffamily%3DGloria%2BHallelujah;" vertex="1" parent="1">
          <mxGeometry x="700" y="150" width="90" height="100" as="geometry" />
        </mxCell>
        <mxCell id="3mhKy8wK3tJmvJU5zgWn-30" value="Docker Push" style="edgeStyle=orthogonalEdgeStyle;shape=connector;curved=1;rounded=0;sketch=1;jiggle=2;curveFitting=1;orthogonalLoop=1;jettySize=auto;html=1;entryX=0.5;entryY=1;entryDx=0;entryDy=0;entryPerimeter=0;strokeColor=default;align=center;verticalAlign=middle;fontFamily=Gloria Hallelujah;fontSize=14;fontColor=default;labelBackgroundColor=default;endArrow=classic;fontSource=https%3A%2F%2Ffonts.googleapis.com%2Fcss%3Ffamily%3DGloria%2BHallelujah;" edge="1" parent="1" source="3mhKy8wK3tJmvJU5zgWn-8" target="3mhKy8wK3tJmvJU5zgWn-29">
          <mxGeometry relative="1" as="geometry" />
        </mxCell>
        <mxCell id="3mhKy8wK3tJmvJU5zgWn-31" value="&lt;font style=&quot;font-size: 14px;&quot;&gt;Docker Pull&lt;/font&gt;" style="edgeStyle=orthogonalEdgeStyle;shape=connector;curved=1;rounded=0;sketch=1;jiggle=2;curveFitting=1;orthogonalLoop=1;jettySize=auto;html=1;exitX=1;exitY=0.5;exitDx=0;exitDy=0;exitPerimeter=0;entryX=0.42;entryY=0.042;entryDx=0;entryDy=0;entryPerimeter=0;strokeColor=default;align=center;verticalAlign=middle;fontFamily=Gloria Hallelujah;fontSize=11;fontColor=default;labelBackgroundColor=default;endArrow=classic;fontSource=https%3A%2F%2Ffonts.googleapis.com%2Fcss%3Ffamily%3DGloria%2BHallelujah;" edge="1" parent="1" source="3mhKy8wK3tJmvJU5zgWn-29" target="3mhKy8wK3tJmvJU5zgWn-28">
          <mxGeometry relative="1" as="geometry" />
        </mxCell>
      </root>
    </mxGraphModel>
  </diagram>
</mxfile>
